<svg class="thgCopyright_svg" version="1.1" xmlns="http://www.w3.org/2000/svg" xmlns:xlink="http://www.w3.org/1999/xlink" viewBox="0 0 82 25" xml:space="preserve" role="img" aria-label="THG">
	<path d="M7.736,4.974H0v-4.56h21.063v4.56H13.33v19.612H7.736V4.974z M50.641,0.414v24.172h-5.594v-9.91H34.066v9.91 h-5.595V0.414h5.595v9.531h10.981V0.414H50.641z M75.674,12.121h5.109v9.807c-1.311,0.99-2.83,1.75-4.557,2.277 C74.5,24.734,72.762,25,71.012,25c-2.51,0-4.766-0.535-6.768-1.605c-2.004-1.07-3.574-2.555-4.715-4.455 c-1.139-1.898-1.709-4.045-1.709-6.44c0-2.393,0.57-4.541,1.709-6.44c1.141-1.899,2.723-3.384,4.75-4.454 C66.305,0.534,68.584,0,71.117,0c2.117,0,4.039,0.357,5.766,1.071c1.729,0.714,3.178,1.75,4.352,3.107l-3.592,3.315 c-1.727-1.818-3.811-2.728-6.25-2.728c-1.543,0-2.912,0.323-4.107,0.966c-1.197,0.646-2.131,1.553-2.799,2.728 c-0.668,1.174-1.002,2.521-1.002,4.04c0,1.497,0.334,2.831,1.002,4.004c0.668,1.176,1.594,2.09,2.779,2.746 c1.188,0.656,2.539,0.986,4.057,0.986c1.613,0,3.063-0.346,4.352-1.037V12.121L75.674,12.121z"></path>
</svg>