				<svg role="img" xmlns="http://www.w3.org/2000/svg" width="60" height="40" fill="none" viewBox="0 0 60 40">
					<title>Discover</title>
					<rect width="59" height="39" x=".5" y=".5" fill="url(#a)" stroke="#DDD" rx="3.5"></rect>
					<path fill="#fff"
						d="M2 4c0-1.10457.89543-2 2-2h35c9.9411 0 18 8.0589 18 18s-8.0589 18-18 18H4c-1.10457 0-2-.8954-2-2V4Z">
					</path>
					<path fill="#231F20"
						d="M6.31118 16.2994H4v8.0658h2.29247c1.22577 0 2.10533-.2901 2.8726-.9264.91703-.7579 1.45973-1.9088 1.45973-3.0971.0093-2.3861-1.76851-4.0423-4.31362-4.0423Zm1.83398 6.054c-.49592.4491-1.1322.6456-2.15211.6456h-.42107v-5.3335h.42107c1.01991 0 1.63748.1778 2.15211.655.54271.4866.8702 1.2352.8702 2.0118 0 .7673-.32749 1.5345-.8702 2.0211ZM12.9359 16.2994h-1.572v8.0658h1.572v-8.0658ZM16.7815 19.3872c-.9451-.3462-1.2164-.5801-1.2164-1.0199 0-.5053.4959-.8982 1.1696-.8982.4679 0 .8609.1964 1.2726.6549l.8234-1.076c-.6737-.5895-1.4878-.8983-2.3673-.8983-1.4223 0-2.5171.9919-2.5171 2.3112 0 1.1135.5053 1.6843 1.9837 2.2082.6176.2153.9264.365 1.0854.4585.3182.2059.4679.496.4679.8328 0 .655-.524 1.1416-1.2258 1.1416-.7485 0-1.3568-.3743-1.7123-1.0761l-1.0199.9919c.7205 1.0667 1.5907 1.5345 2.7884 1.5345 1.6374 0 2.779-1.0854 2.779-2.648.0093-1.2819-.524-1.8621-2.3112-2.5171ZM19.598 20.3323c0 2.3673 1.8621 4.2107 4.2575 4.2107.6737 0 1.2538-.131 1.9743-.4679v-1.8527c-.6269.6269-1.1883.8796-1.8995.8796-1.5813 0-2.7042-1.1509-2.7042-2.7791 0-1.5439 1.1603-2.7696 2.6387-2.7696.7486 0 1.3194.2713 1.9744.9076v-1.8527c-.6925-.3462-1.2539-.4959-1.937-.4959-2.3953 0-4.3042 1.8807-4.3042 4.22ZM38.2933 21.7171l-2.1521-5.4177h-1.7124l3.4247 8.2716h.8421l3.4808-8.2716h-1.7029l-2.1802 5.4177ZM42.8877 24.3558h4.4633V22.999h-2.8913v-2.1801h2.7884v-1.3662h-2.7884v-1.7872h2.8913v-1.3661h-4.4633v8.0564ZM53.5828 18.6761c0-1.5065-1.0386-2.3767-2.8539-2.3767H48.399v8.0658h1.572v-3.2376h.2059l2.1802 3.2376h1.9369l-2.5358-3.3966c1.1696-.2433 1.8246-1.0574 1.8246-2.2925Zm-3.1626 1.3287h-.4585v-2.4422h.4865c.9825 0 1.5159.4117 1.5159 1.1977 0 .8141-.5334 1.2445-1.5439 1.2445ZM54.5839 16.5989c0-.1404-.0935-.2153-.2713-.2153h-.2246v.7112h.1684v-.2714l.1965.2714h.2059l-.2339-.2901c.1029-.0374.159-.1029.159-.2058Zm-.2994.0935h-.0281v-.1871h.0281c.0842 0 .131.0281.131.0936s-.0468.0935-.131.0935Z">
					</path>
					<path fill="#231F20"
						d="M54.3501 16.1123c-.3462 0-.6176.2713-.6176.6176 0 .3462.2808.6175.6176.6175.3369 0 .6082-.2807.6082-.6175 0-.3369-.2713-.6176-.6082-.6176Zm0 1.1322c-.2713 0-.4959-.2246-.4959-.5053 0-.2807.2152-.5053.4959-.5053.2714 0 .4866.234.4866.5053 0 .2714-.2246.5053-.4866.5053Z">
					</path>
					<path fill="url(#b)"
						d="M30.6767 24.571c2.3669 0 4.2856-1.9187 4.2856-4.2855 0-2.3668-1.9187-4.2855-4.2856-4.2855-2.3668 0-4.2855 1.9187-4.2855 4.2855 0 2.3668 1.9187 4.2855 4.2855 4.2855Z">
					</path>
					<path fill="url(#c)"
						d="M30.6767 24.571c2.3669 0 4.2856-1.9187 4.2856-4.2855 0-2.3668-1.9187-4.2855-4.2856-4.2855-2.3668 0-4.2855 1.9187-4.2855 4.2855 0 2.3668 1.9187 4.2855 4.2855 4.2855Z">
					</path>
					<path fill="url(#d)"
						d="M30.6767 24.571c2.3669 0 4.2856-1.9187 4.2856-4.2855 0-2.3668-1.9187-4.2855-4.2856-4.2855-2.3668 0-4.2855 1.9187-4.2855 4.2855 0 2.3668 1.9187 4.2855 4.2855 4.2855Z">
					</path>
					<defs>
						<radialGradient id="b" cx="0" cy="0" r="1" gradientTransform="translate(31.0904 20.7856) scale(19.2216)"
							gradientUnits="userSpaceOnUse">
							<stop offset=".1385" stop-color="#F37B20"></stop>
							<stop offset=".1693" stop-color="#F27123"></stop>
							<stop offset=".2056" stop-color="#D95227"></stop>
							<stop offset=".2193" stop-color="#C24525"></stop>
							<stop offset=".2386" stop-color="#A53423"></stop>
						</radialGradient>
						<radialGradient id="c" cx="0" cy="0" r="1" gradientTransform="translate(32.2632 22.3661) scale(17.411)"
							gradientUnits="userSpaceOnUse">
							<stop offset=".0435203" stop-color="#F89F1F"></stop>
							<stop offset=".0789941" stop-color="#F89F1F"></stop>
							<stop offset=".1266" stop-color="#F79420" stop-opacity=".8563"></stop>
							<stop offset=".2096" stop-color="#F47821" stop-opacity=".6057"></stop>
							<stop offset=".3173" stop-color="#F04924" stop-opacity=".2806"></stop>
							<stop offset=".4102" stop-color="#EC1C26" stop-opacity="0"></stop>
						</radialGradient>
						<radialGradient id="d" cx="0" cy="0" r="1" gradientTransform="translate(32.2632 22.3661) scale(17.411)"
							gradientUnits="userSpaceOnUse">
							<stop offset=".0435203" stop-color="#F89F1F"></stop>
							<stop offset=".0789941" stop-color="#F89F1F"></stop>
							<stop offset=".3504" stop-color="#F89F1F" stop-opacity="0"></stop>
						</radialGradient>
						<linearGradient id="a" x1="26" x2="60" y1="-3.5" y2="40" gradientUnits="userSpaceOnUse">
							<stop stop-color="#E15115"></stop>
							<stop offset="1" stop-color="#F9A020"></stop>
						</linearGradient>
					</defs>
				</svg>