<svg version="1.1" xmlns="http://www.w3.org/2000/svg" xmlns:xlink="http://www.w3.org/1999/xlink" width="60" height="40" viewBox="0 0 60 40" xml:space="preserve">
	<title>Mastercard</title>
	<path fill="#DDDDDD" d="M56.25,0H3.75C1.685,0,0,1.8,0,4v32c0,2.199,1.686,4,3.75,4h52.5c2.064,0,3.75-1.801,3.75-4V4 C60,1.8,58.314,0,56.25,0z M59.25,36c0,1.764-1.346,3.2-3,3.2H3.75c-1.655,0-3-1.437-3-3.2V4c0-1.764,1.345-3.2,3-3.2h52.5 c1.654,0,3,1.436,3,3.2V36z"></path>
	<path fill="#FFFFFF" d="M56.25,0.8H3.75c-1.655,0-3,1.436-3,3.2v32c0,1.764,1.345,3.2,3,3.2h52.5c1.654,0,3-1.437,3-3.2V4 C59.25,2.236,57.904,0.8,56.25,0.8z"></path>
	<path d="M19.472,32.939v-1.723c0-0.66-0.398-1.09-1.079-1.09c-0.34,0-0.71,0.115-0.965,0.488c-0.198-0.316-0.482-0.488-0.908-0.488 c-0.316-0.013-0.617,0.14-0.794,0.402v-0.346H15.13v2.756h0.596v-1.521c0-0.488,0.255-0.717,0.652-0.717 c0.398,0,0.596,0.258,0.596,0.717v1.52h0.596v-1.52c0-0.488,0.284-0.717,0.653-0.717c0.397,0,0.596,0.258,0.596,0.717v1.52h0.653 V32.939z M28.297,30.184h-0.965v-0.832h-0.596v0.832h-0.539v0.547h0.54v1.262c0,0.631,0.255,1.004,0.936,1.004 c0.255,0,0.54-0.086,0.738-0.2l-0.17-0.517c-0.153,0.096-0.331,0.146-0.511,0.143c-0.284,0-0.398-0.172-0.398-0.459V30.73h0.965 V30.184z M33.35,30.127c-0.293-0.006-0.565,0.148-0.711,0.402v-0.346h-0.596v2.756h0.596v-1.551c0-0.459,0.199-0.717,0.568-0.717 c0.113,0,0.255,0.029,0.369,0.059l0.17-0.574C33.632,30.127,33.462,30.127,33.35,30.127z M25.715,30.414 c-0.284-0.2-0.681-0.287-1.107-0.287c-0.681,0-1.135,0.344-1.135,0.891c0,0.457,0.34,0.717,0.936,0.803l0.284,0.027 c0.312,0.059,0.483,0.145,0.483,0.287c0,0.201-0.227,0.346-0.625,0.346c-0.397,0-0.71-0.145-0.908-0.287l-0.284,0.459 c0.313,0.229,0.738,0.344,1.164,0.344c0.795,0,1.249-0.373,1.249-0.891c0-0.486-0.37-0.744-0.937-0.83l-0.284-0.03 c-0.255-0.028-0.454-0.085-0.454-0.257c0-0.201,0.199-0.316,0.511-0.316c0.34,0,0.681,0.145,0.851,0.23L25.715,30.414z M41.55,30.127c-0.292-0.006-0.565,0.148-0.71,0.402v-0.346h-0.595v2.756h0.596v-1.551c0-0.459,0.198-0.717,0.567-0.717 c0.113,0,0.256,0.029,0.369,0.059l0.17-0.574C41.834,30.127,41.664,30.127,41.55,30.127z M33.945,31.561 c0,0.832,0.566,1.436,1.447,1.436c0.396,0,0.681-0.086,0.965-0.316l-0.284-0.486c-0.228,0.172-0.454,0.258-0.71,0.258 c-0.482,0-0.822-0.344-0.822-0.891c0-0.516,0.34-0.859,0.822-0.889c0.256,0,0.482,0.086,0.71,0.258l0.284-0.486 c-0.284-0.23-0.568-0.316-0.965-0.316C34.512,30.127,33.945,30.73,33.945,31.561z M39.45,31.561v-1.377h-0.597v0.346 c-0.199-0.26-0.481-0.402-0.851-0.402c-0.767,0-1.362,0.604-1.362,1.434c0,0.832,0.596,1.436,1.362,1.436 c0.397,0,0.681-0.145,0.851-0.402v0.346h0.597V31.561L39.45,31.561z M37.266,31.561c0-0.486,0.312-0.889,0.822-0.889 c0.482,0,0.823,0.373,0.823,0.891c0,0.486-0.341,0.889-0.823,0.889C37.577,32.422,37.266,32.049,37.266,31.561z M30.142,30.127 c-0.795,0-1.362,0.574-1.362,1.434c0,0.861,0.567,1.436,1.39,1.436c0.398,0,0.795-0.115,1.107-0.373l-0.284-0.43 c-0.228,0.172-0.51,0.287-0.794,0.287c-0.37,0-0.738-0.174-0.823-0.66h2.015v-0.23C31.419,30.7,30.908,30.127,30.142,30.127 L30.142,30.127z M30.142,30.643c0.37,0,0.624,0.23,0.681,0.66h-1.419C29.461,30.93,29.716,30.643,30.142,30.643z M44.927,31.561 v-2.467h-0.596v1.436c-0.199-0.26-0.481-0.402-0.851-0.402c-0.767,0-1.362,0.604-1.362,1.434c0,0.832,0.596,1.436,1.362,1.436 c0.396,0,0.68-0.145,0.851-0.402v0.346h0.596V31.561L44.927,31.561z M42.742,31.561c0-0.486,0.313-0.889,0.822-0.889 c0.482,0,0.824,0.373,0.824,0.891c0,0.486-0.341,0.889-0.824,0.889C43.055,32.422,42.742,32.049,42.742,31.561z M22.82,31.561 v-1.377h-0.596v0.346c-0.198-0.26-0.482-0.402-0.851-0.402c-0.766,0-1.362,0.604-1.362,1.434c0,0.832,0.596,1.436,1.362,1.436 c0.397,0,0.681-0.145,0.851-0.402v0.346h0.596V31.561L22.82,31.561z M20.607,31.561c0-0.486,0.312-0.889,0.823-0.889 c0.482,0,0.823,0.373,0.823,0.891c0,0.486-0.34,0.889-0.823,0.889C20.919,32.422,20.607,32.049,20.607,31.561z"></path>
	<path fill="#FF5F00" d="M25.516,9.27h8.939v16.238h-8.94L25.516,9.27z"></path>
	<path fill="#EB001B" d="M26.084,17.39c0-3.3,1.532-6.226,3.888-8.12c-1.789-1.43-4.01-2.209-6.3-2.209 c-5.648,0-10.217,4.62-10.217,10.328c0,5.71,4.57,10.328,10.217,10.328c2.383,0,4.569-0.832,6.3-2.209 C27.616,23.643,26.084,20.688,26.084,17.39L26.084,17.39z"></path>
	<path fill="#F79E1B" d="M46.516,17.39c0,5.708-4.568,10.327-10.216,10.327c-2.384,0-4.569-0.832-6.3-2.209 c2.384-1.893,3.889-4.82,3.889-8.119c0-3.299-1.533-6.225-3.889-8.119c1.788-1.43,4.01-2.209,6.3-2.209 C41.947,7.061,46.516,11.709,46.516,17.39L46.516,17.39z"></path>
</svg>