<svg version="1.1" xmlns="http://www.w3.org/2000/svg" xmlns:xlink="http://www.w3.org/1999/xlink" width="60" height="40" viewBox="0 0 60 40" xml:space="preserve">
	<title>Visa Electron</title>
	<path fill="#DDDDDD" d="M56.25,0H3.75C1.685,0,0,1.8,0,4v32c0,2.199,1.686,4,3.75,4h52.5c2.064,0,3.75-1.801,3.75-4V4 C60,1.8,58.314,0,56.25,0z M59.25,36c0,1.764-1.346,3.2-3,3.2H3.75c-1.655,0-3-1.437-3-3.2V4c0-1.764,1.345-3.2,3-3.2h52.5 c1.654,0,3,1.436,3,3.2V36z"></path>
	<path fill="#FFFFFF" d="M56.25,0.8H3.75c-1.655,0-3,1.436-3,3.2v32c0,1.764,1.345,3.2,3,3.2h52.5c1.654,0,3-1.437,3-3.2V4 C59.25,2.236,57.904,0.8,56.25,0.8z"></path>
	<path fill="#F8B600" d="M5.833,34.988h48.333v-4.342H5.833V34.988z"></path>
	<path fill="#1A1F71" d="M5.833,9.175h48.333v-4.34H5.833V9.175z M29.583,13.958l-2.548,11.931h-3.081L26.5,13.958H29.583 L29.583,13.958z M42.547,21.662l1.622-4.48l0.933,4.48H42.547z M45.986,25.889h2.849l-2.489-11.931h-2.628 c-0.593,0-1.092,0.344-1.313,0.875l-4.623,11.056h3.236l0.643-1.781h3.953L45.986,25.889L45.986,25.889z M37.941,21.994 c0.014-3.149-4.344-3.323-4.315-4.73c0.009-0.428,0.416-0.883,1.306-1c0.441-0.057,1.659-0.103,3.041,0.534l0.539-2.53 c-0.922-0.346-1.898-0.524-2.883-0.528c-3.047,0-5.19,1.62-5.207,3.944c-0.02,1.718,1.531,2.675,2.697,3.248 c1.201,0.584,1.604,0.959,1.598,1.482c-0.008,0.8-0.958,1.154-1.842,1.168c-1.55,0.023-2.449-0.42-3.165-0.754l-0.56,2.615 c0.722,0.33,2.05,0.619,3.426,0.634C35.814,26.077,37.932,24.475,37.941,21.994z M25.18,13.958l-4.993,11.931H16.93l-2.457-9.521 c-0.15-0.585-0.279-0.8-0.732-1.048c-0.74-0.403-1.964-0.78-3.04-1.015l0.073-0.346h5.243c0.668,0,1.27,0.445,1.422,1.216 l1.298,6.905l3.205-8.121H25.18z"></path>
	<path fill="#1A1F71" d="M35.932,29.98H34v-2.855h1.932v0.32h-1.541v0.916h1.461v0.316h-1.461v0.982h1.541V29.98L35.932,29.98z M36.417,27h0.376v2.98h-0.376V27z M38.253,28.13c-0.086-0.001-0.171,0.014-0.252,0.043c-0.15,0.056-0.272,0.169-0.34,0.313 c-0.036,0.078-0.058,0.162-0.062,0.248h1.279c-0.001-0.086-0.018-0.17-0.05-0.248c-0.06-0.146-0.177-0.259-0.324-0.313 C38.424,28.143,38.339,28.129,38.253,28.13z M39.243,29.37c-0.017,0.091-0.054,0.179-0.108,0.253 c-0.059,0.079-0.131,0.146-0.213,0.2c-0.086,0.056-0.184,0.1-0.294,0.13C38.514,29.984,38.396,30,38.277,30 c-0.164,0-0.313-0.025-0.443-0.075c-0.126-0.047-0.24-0.12-0.336-0.216c-0.095-0.097-0.168-0.213-0.214-0.34 c-0.052-0.144-0.077-0.295-0.074-0.447c0-0.165,0.024-0.314,0.074-0.449c0.089-0.26,0.287-0.468,0.543-0.568 c0.13-0.051,0.274-0.077,0.433-0.077c0.155,0,0.295,0.024,0.42,0.073c0.125,0.05,0.23,0.119,0.319,0.209 c0.087,0.091,0.155,0.201,0.202,0.33c0.046,0.129,0.07,0.273,0.07,0.435v0.135H37.6v0.021c-0.002,0.094,0.014,0.188,0.047,0.275 c0.063,0.162,0.193,0.289,0.357,0.346c0.156,0.054,0.326,0.063,0.487,0.024c0.06-0.014,0.118-0.036,0.172-0.065 c0.049-0.027,0.093-0.062,0.13-0.104c0.035-0.039,0.061-0.085,0.078-0.135L39.243,29.37L39.243,29.37z M41.221,28.542 c-0.023-0.117-0.091-0.222-0.188-0.29c-0.056-0.038-0.116-0.067-0.181-0.086c-0.169-0.049-0.35-0.041-0.514,0.023 c-0.082,0.035-0.156,0.09-0.215,0.158c-0.063,0.071-0.109,0.154-0.141,0.245c-0.033,0.104-0.051,0.212-0.049,0.32 c-0.002,0.11,0.015,0.222,0.049,0.327c0.035,0.096,0.08,0.178,0.142,0.244c0.06,0.068,0.133,0.121,0.217,0.156 c0.089,0.035,0.185,0.054,0.28,0.053c0.141,0.006,0.279-0.029,0.4-0.101c0.104-0.067,0.178-0.175,0.205-0.296h0.369 c-0.016,0.102-0.051,0.198-0.105,0.285c-0.055,0.086-0.125,0.162-0.208,0.223c-0.09,0.064-0.19,0.113-0.296,0.145 c-0.119,0.035-0.243,0.053-0.367,0.051c-0.16,0-0.307-0.025-0.438-0.075c-0.258-0.097-0.459-0.302-0.554-0.56 c-0.053-0.145-0.078-0.297-0.076-0.451c0-0.164,0.025-0.313,0.076-0.447c0.093-0.258,0.294-0.463,0.55-0.563 c0.131-0.051,0.276-0.077,0.436-0.077c0.145,0,0.275,0.021,0.391,0.06c0.114,0.04,0.214,0.092,0.297,0.158 c0.084,0.066,0.15,0.143,0.199,0.227c0.049,0.086,0.08,0.177,0.09,0.271H41.221z M42.455,27.366v0.481h0.453v0.284h-0.453v1.28 c0,0.1,0.023,0.171,0.07,0.217c0.047,0.045,0.119,0.068,0.22,0.068h0.04l0.048-0.004c0.024,0,0.049-0.003,0.073-0.006v0.291 c-0.035,0.006-0.07,0.011-0.105,0.013c-0.045,0.003-0.091,0.005-0.137,0.005c-0.091,0.002-0.182-0.01-0.27-0.032 c-0.067-0.018-0.129-0.052-0.181-0.1c-0.049-0.049-0.085-0.11-0.103-0.177c-0.023-0.085-0.034-0.173-0.032-0.262v-1.294h-0.324 v-0.284h0.324v-0.48L42.455,27.366L42.455,27.366z M43.325,27.848h0.354v0.346h0.008c0.034-0.111,0.107-0.206,0.205-0.268 c0.052-0.032,0.107-0.057,0.166-0.072c0.11-0.031,0.227-0.035,0.338-0.013v0.341c-0.027-0.01-0.055-0.015-0.084-0.017 c-0.036-0.005-0.072-0.007-0.109-0.007c-0.07-0.002-0.141,0.011-0.207,0.035c-0.12,0.045-0.215,0.141-0.26,0.261 c-0.024,0.065-0.037,0.136-0.035,0.206v1.32h-0.376V27.848L43.325,27.848z M45.578,30c-0.164,0-0.313-0.025-0.444-0.077 c-0.126-0.048-0.241-0.123-0.338-0.219c-0.095-0.098-0.169-0.214-0.216-0.343c-0.052-0.143-0.077-0.295-0.075-0.447 c0-0.167,0.024-0.316,0.075-0.45c0.047-0.128,0.12-0.245,0.216-0.343c0.096-0.096,0.212-0.17,0.338-0.219 c0.132-0.049,0.28-0.075,0.444-0.075c0.165,0,0.313,0.026,0.443,0.075c0.133,0.052,0.246,0.125,0.338,0.219 c0.096,0.098,0.17,0.214,0.217,0.342c0.05,0.135,0.076,0.284,0.076,0.45c0,0.165-0.025,0.315-0.076,0.448 c-0.047,0.129-0.121,0.245-0.217,0.343c-0.096,0.096-0.211,0.171-0.338,0.219C45.891,29.975,45.742,30,45.578,30z M45.578,29.693 c0.1,0.002,0.197-0.017,0.29-0.053c0.084-0.035,0.159-0.088,0.22-0.154c0.063-0.071,0.107-0.154,0.135-0.244 c0.031-0.096,0.047-0.206,0.047-0.328c0-0.123-0.016-0.232-0.047-0.329c-0.027-0.091-0.074-0.174-0.136-0.245 c-0.06-0.067-0.134-0.12-0.218-0.154c-0.092-0.035-0.191-0.053-0.29-0.052c-0.1-0.001-0.198,0.017-0.291,0.054 c-0.083,0.033-0.158,0.086-0.218,0.153c-0.063,0.071-0.109,0.154-0.137,0.244c-0.032,0.106-0.049,0.218-0.047,0.329 c0,0.122,0.016,0.232,0.049,0.328c0.027,0.09,0.074,0.173,0.135,0.244c0.061,0.066,0.135,0.119,0.218,0.154 C45.381,29.677,45.479,29.695,45.578,29.693z M47.048,27.848H47.4v0.346h0.011c0.147-0.244,0.399-0.366,0.76-0.366 c0.128,0,0.243,0.019,0.345,0.055c0.197,0.063,0.354,0.212,0.428,0.404c0.039,0.104,0.059,0.216,0.057,0.327v1.367h-0.376v-1.309 c0-0.175-0.048-0.309-0.146-0.4c-0.096-0.092-0.235-0.138-0.42-0.138c-0.088-0.001-0.177,0.014-0.261,0.043 c-0.151,0.052-0.272,0.167-0.33,0.315c-0.03,0.08-0.046,0.164-0.045,0.25v1.238h-0.376L47.048,27.848L47.048,27.848z"></path>
	<path fill="none" d="M56.25,0.8H3.75c-1.655,0-3,1.436-3,3.2v32c0,1.764,1.345,3.2,3,3.2h52.5c1.654,0,3-1.437,3-3.2V4 C59.25,2.236,57.904,0.8,56.25,0.8z"></path>
</svg>