	<svg role="img" xmlns="http://www.w3.org/2000/svg" width="60" height="40" viewBox="0 0 60 40">
					<title>Afterpay</title>
					<rect width="59" height="39" x=".5" y=".5" fill="#FFF" stroke="#DDD" rx="5"></rect>
					<path
						d="M56.926 16.676l-1.631-.939-1.631-.985a1.646 1.646 0 00-2.462 1.431v.2a.354.354 0 00.154.293l.77.43a.308.308 0 00.43-.123.292.292 0 000-.153v-.493a.323.323 0 01.308-.338h.184l1.539.877 1.538.861a.338.338 0 01.108.462l-.108.108-1.538.861-1.539.877a.323.323 0 01-.446-.108.37.37 0 010-.184v-.246a1.646 1.646 0 00-2.461-1.431l-1.662.954-1.631.938a1.662 1.662 0 00-.615 2.246 1.539 1.539 0 00.615.616l1.63.938 1.663.939a1.646 1.646 0 002.461-1.431v-.2a.354.354 0 00-.154-.292l-.769-.446a.308.308 0 00-.43.123.354.354 0 000 .169v.492a.323.323 0 01-.308.339.415.415 0 01-.185 0l-1.539-.877-1.538-.862a.338.338 0 01-.17-.43l.108-.108 1.539-.862 1.538-.877a.323.323 0 01.447.108.37.37 0 010 .184v.247a1.646 1.646 0 002.461 1.43l1.662-.954 1.63-.938a1.63 1.63 0 00.524-2.262 1.539 1.539 0 00-.492-.584zM46.186 16.953l-3.83 7.908h-1.54l1.432-2.954L40 16.953h1.631l1.447 3.307 1.538-3.307zM7.892 19.753a1.539 1.539 0 10-1.539 1.615 1.539 1.539 0 001.539-1.538v-.077m0 2.815v-.738a2.292 2.292 0 01-1.785.83 2.754 2.754 0 01-2.692-2.815v-.092a2.8 2.8 0 012.692-2.908 2.262 2.262 0 011.754.815v-.707h1.37v5.615zM16 21.291c-.492 0-.615-.184-.615-.646v-2.43h.877v-1.216h-.877v-1.416h-1.416v1.37h-1.846v-.57c0-.461.185-.646.677-.646h.308v-1.092h-.662c-1.17 0-1.723.384-1.723 1.538v.754h-.785v1.277h.785v4.4h1.4v-4.4h1.846v2.754c0 1.154.431 1.646 1.539 1.646h.77v-1.323zM21.077 19.245a1.339 1.339 0 00-1.4-1.154 1.37 1.37 0 00-1.415 1.154zm-2.8.877a1.4 1.4 0 001.446 1.308 1.539 1.539 0 001.324-.723h1.446a2.754 2.754 0 01-2.8 1.954 2.77 2.77 0 01-2.954-2.57v-.338a2.908 2.908 0 115.815 0 1.37 1.37 0 010 .354zM31.601 19.753a1.539 1.539 0 100 .077v-.077m-4.446 5.108v-7.908h1.369v.723a2.292 2.292 0 011.785-.831 2.754 2.754 0 012.707 2.8v.108a2.8 2.8 0 01-2.692 2.908 2.216 2.216 0 01-1.708-.754v2.954zM38.001 19.753a1.539 1.539 0 10-1.615 1.615h.077A1.539 1.539 0 0038 19.83v-.077m0 2.815v-.738a2.246 2.246 0 01-1.769.83 2.754 2.754 0 01-2.708-2.8v-.107a2.8 2.8 0 012.693-2.908 2.23 2.23 0 011.738.815v-.707h1.385v5.615zM24.662 17.506a1.4 1.4 0 011.216-.661 1.354 1.354 0 01.6.123v1.446a1.77 1.77 0 00-1-.261.985.985 0 00-.77 1.092v3.323h-1.43v-5.615h1.384z"
						stroke-width="1.539"></path>
				</svg>