<svg xmlns="http://www.w3.org/2000/svg" xmlns:xlink="http://www.w3.org/1999/xlink" width="60" height="40" viewBox="0 0 60 40" overflow="visible" enable-background="new 0 0 60 40" xml:space="preserve">
	<title>Apple Pay</title>
	<path fill="#DDDDDD" d="M56.25,0H3.75C1.688,0,0,1.8,0,4v32C0,38.199,1.688,40,3.75,40h52.5c2.063,0,3.75-1.801,3.75-3.999V4 C60,1.8,58.313,0,56.25,0z M59.25,36.001c0,1.765-1.346,3.198-3,3.198H3.75c-1.655,0-3-1.434-3-3.198V4c0-1.765,1.346-3.2,3-3.2 h52.5c1.654,0,3,1.436,3,3.2V36.001z"></path>
	<path fill="#FFFFFF" d="M56.25,0.8H3.75c-1.655,0-3,1.436-3,3.2v32c0,1.765,1.346,3.198,3,3.198h52.5c1.654,0,3-1.434,3-3.198V4 C59.25,2.236,57.904,0.8,56.25,0.8z"></path>
	<path id="Shape-Copy" d="M18.298,19.307c0.025,2.65,2.4,3.533,2.427,3.544c-0.02,0.063-0.379,1.257-1.251,2.491 c-0.754,1.067-1.536,2.13-2.769,2.152c-1.211,0.021-1.6-0.695-2.985-0.695c-1.384,0-1.817,0.673-2.963,0.717 c-1.189,0.044-2.095-1.154-2.855-2.218c-1.553-2.175-2.74-6.145-1.146-8.825c0.792-1.331,2.206-2.174,3.742-2.195 c1.168-0.022,2.271,0.761,2.985,0.761c0.713,0,2.053-0.941,3.462-0.803c0.589,0.024,2.244,0.23,3.307,1.737 C20.167,16.025,18.277,17.091,18.298,19.307z M16.022,12.797c0.631-0.741,1.057-1.771,0.941-2.797 c-0.91,0.035-2.011,0.587-2.664,1.328c-0.585,0.655-1.098,1.704-0.959,2.709C14.355,14.113,15.391,13.538,16.022,12.797 L16.022,12.797z M25.163,11.529c0.515-0.085,1.031-0.156,1.549-0.213c0.619-0.066,1.241-0.097,1.863-0.094 c0.968,0,1.803,0.114,2.504,0.343c0.702,0.229,1.278,0.556,1.729,0.981c0.392,0.383,0.7,0.841,0.908,1.347 c0.218,0.52,0.326,1.119,0.326,1.796c0,0.819-0.148,1.537-0.447,2.151c-0.287,0.601-0.705,1.129-1.223,1.548 c-0.516,0.417-1.129,0.728-1.838,0.934c-0.711,0.204-1.485,0.307-2.324,0.307c-0.758,0-1.395-0.055-1.911-0.165v6.808h-1.138V11.529 z M26.3,19.472c0.274,0.078,0.581,0.133,0.919,0.165c0.339,0.032,0.702,0.047,1.089,0.047c1.452,0,2.576-0.331,3.375-0.993 s1.198-1.631,1.198-2.907c0-0.614-0.104-1.15-0.314-1.607c-0.199-0.443-0.507-0.83-0.896-1.123 c-0.387-0.292-0.846-0.512-1.379-0.662c-0.533-0.149-1.122-0.225-1.768-0.225c-0.516,0-0.959,0.02-1.331,0.059 c-0.371,0.04-0.669,0.083-0.895,0.13L26.3,19.472L26.3,19.472z M43.09,24.577c0,0.457,0.007,0.914,0.023,1.371 c0.016,0.456,0.064,0.897,0.145,1.323h-1.064l-0.169-1.607h-0.05c-0.145,0.221-0.33,0.441-0.556,0.662 c-0.226,0.22-0.487,0.421-0.786,0.603c-0.299,0.181-0.637,0.327-1.016,0.437c-0.406,0.114-0.826,0.17-1.246,0.166 c-0.564,0-1.061-0.091-1.489-0.271c-0.428-0.182-0.778-0.418-1.053-0.709c-0.272-0.289-0.481-0.631-0.616-1.005 c-0.135-0.363-0.204-0.747-0.205-1.135c0-1.339,0.576-2.371,1.729-3.097c1.153-0.725,2.892-1.071,5.216-1.04v-0.307 c0-0.3-0.029-0.643-0.086-1.029c-0.057-0.386-0.184-0.759-0.375-1.099c-0.193-0.346-0.484-0.638-0.871-0.874 c-0.387-0.237-0.912-0.355-1.572-0.355c-0.501,0-0.996,0.075-1.488,0.224c-0.492,0.15-0.939,0.358-1.343,0.626l-0.363-0.828 c0.517-0.346,1.049-0.594,1.597-0.744c0.561-0.151,1.139-0.227,1.719-0.224c0.807,0,1.463,0.134,1.972,0.401 c0.509,0.268,0.907,0.615,1.198,1.04c0.293,0.432,0.494,0.918,0.592,1.431c0.104,0.517,0.157,1.044,0.158,1.571V24.577L43.09,24.577 z M41.951,21.197c-0.642-0.016-1.284,0.009-1.924,0.07c-0.669,0.063-1.286,0.201-1.851,0.414c-0.565,0.213-1.032,0.523-1.403,0.934 c-0.37,0.409-0.557,0.953-0.557,1.631c0,0.803,0.234,1.395,0.703,1.772c0.467,0.378,0.99,0.567,1.571,0.567 c0.468,0,0.888-0.063,1.259-0.189c0.371-0.126,0.692-0.295,0.967-0.508c0.275-0.212,0.504-0.453,0.689-0.721 c0.187-0.269,0.327-0.543,0.425-0.828c0.081-0.314,0.122-0.543,0.122-0.686v-2.457H41.951z M45.313,15.926l2.951,7.375 c0.165,0.416,0.318,0.838,0.46,1.264c0.146,0.434,0.275,0.832,0.388,1.193h0.048c0.113-0.346,0.242-0.736,0.388-1.17 c0.146-0.433,0.307-0.878,0.483-1.336l2.76-7.327H54l-3.363,8.321c-0.308,0.804-0.626,1.604-0.955,2.398 c-0.272,0.66-0.575,1.307-0.908,1.938c-0.277,0.528-0.589,1.038-0.932,1.525c-0.303,0.428-0.656,0.816-1.053,1.158 c-0.451,0.394-0.867,0.682-1.246,0.863c-0.379,0.181-0.633,0.295-0.762,0.342l-0.389-0.922c0.332-0.146,0.656-0.313,0.969-0.496 c0.379-0.223,0.729-0.493,1.04-0.803c0.291-0.284,0.61-0.658,0.956-1.123c0.348-0.465,0.658-1.028,0.932-1.69 c0.098-0.252,0.146-0.418,0.146-0.497c0-0.109-0.048-0.275-0.146-0.496l-4.186-10.519L45.313,15.926L45.313,15.926z"></path>
</svg>