		<svg role="img" xmlns="http://www.w3.org/2000/svg" width="60" height="40" viewBox="0 0 60 40">
					<title>Diners</title>
					<rect width="59" height="39" x=".5" y=".5" fill="#FFF" stroke="#DDD" rx="4"></rect>
					<g transform="translate(6 3)">
						<path fill="#231F20"
							d="M2.45115646 25.6771701C2.45115646 26.4506122 3.00331973 26.5395374 3.4955102 26.5395374 5.66487075 26.5395374 6.37627211 24.9037279 6.37627211 23.4085442 6.37627211 21.5307755 5.17268027 20.1741497 3.23493878 20.1741497 2.82133333 20.1741497 2.63107483 20.2051701 2.45115646 20.2155102L2.45115646 25.6771701zM1.4585034 20.9682721C1.4585034 20.0645442.986993197 20.124517.536163265 20.1141769L.536163265 19.8639456C.927020408 19.8825578 1.32821769 19.8825578 1.72114286 19.8825578 2.11406803 19.8825578 2.71379592 19.8639456 3.45828571 19.8639456 6.05779592 19.8639456 7.47439456 21.5990204 7.47439456 23.3795918 7.47439456 24.3743129 6.89121088 26.8745578 3.33834014 26.8745578 2.82753741 26.8745578 2.35395918 26.8538776 1.89072109 26.8538776 1.42748299 26.8538776.997333333 26.8538776.546503401 26.8745578L.546503401 26.6139864C1.14829932 26.5519456 1.43989116 26.5333333 1.46884354 25.8488163L1.4585034 20.9682721zM8.90340136 20.7263129C8.63157207 20.7263129 8.41121088 20.5059517 8.41121088 20.2341224 8.41121088 19.9622932 8.63157207 19.741932 8.90340136 19.741932 9.17203269 19.741894 9.39107703 19.9572569 9.39559184 20.2258503 9.39562916 20.4990497 9.1765634 20.7217972 8.90340136 20.7263129L8.90340136 20.7263129zM7.83009524 26.6015782L8.02035374 26.6015782C8.30160544 26.6015782 8.50220408 26.6015782 8.50220408 26.2686259L8.50220408 23.547102C8.50220408 23.1066122 8.3512381 23.0445714 7.9789932 22.8460408L7.9789932 22.6847347C8.4505034 22.5441088 9.0130068 22.3538503 9.05436735 22.3228299 9.10893112 22.2907497 9.1709915 22.2736296 9.23428571 22.2731973 9.28391837 22.2731973 9.30459864 22.3331701 9.30459864 22.4138231L9.30459864 26.2748299C9.30459864 26.6077823 9.52587755 26.6077823 9.80712925 26.6077823L9.97670748 26.6077823 9.97670748 26.8683537C9.63548299 26.8683537 9.28391837 26.8476735 8.92408163 26.8476735 8.5642449 26.8476735 8.20027211 26.8476735 7.83009524 26.8683537L7.83009524 26.6015782zM10.9362721 23.6091429C10.9362721 23.236898 10.8245986 23.1376327 10.3530884 22.9453061L10.3530884 22.7591837C10.8030584 22.6217967 11.2455318 22.46096 11.6786939 22.2773333 11.7097143 22.2773333 11.7386667 22.2959456 11.7386667 22.3765986L11.7386667 23.0300952C12.3115102 22.6164898 12.8037007 22.2773333 13.4778776 22.2773333 14.3299048 22.2773333 14.6297687 22.8977415 14.6297687 23.6835918L14.6297687 26.2748299C14.6297687 26.6077823 14.8531156 26.6077823 15.1322993 26.6077823L15.3142857 26.6077823 15.3142857 26.8683537C14.9606531 26.8683537 14.6111565 26.8476735 14.2492517 26.8476735 13.8873469 26.8476735 13.5254422 26.8476735 13.1635374 26.8683537L13.1635374 26.6077823 13.3455238 26.6077823C13.6267755 26.6077823 13.8273741 26.6077823 13.8273741 26.2748299L13.8273741 23.6691156C13.8273741 23.0962721 13.4778776 22.8150204 12.905034 22.8150204 12.5824218 22.8150204 12.0778231 23.0755918 11.7386667 23.2968707L11.7386667 26.2748299C11.7386667 26.6077823 11.9599456 26.6077823 12.2411973 26.6077823L12.4190476 26.6077823 12.4190476 26.8683537C12.067483 26.8683537 11.7179864 26.8476735 11.3540136 26.8476735 10.9900408 26.8476735 10.6322721 26.8476735 10.2703673 26.8683537L10.2703673 26.6077823 10.4523537 26.6077823C10.7336054 26.6077823 10.9342041 26.6077823 10.9342041 26.2748299L10.9362721 23.6091429zM17.8558912 23.768381C18.1061224 23.768381 18.1350748 23.6380952 18.1350748 23.5181497 18.1350748 23.0073469 17.8228027 22.5937415 17.2602993 22.5937415 16.6398912 22.5937415 16.2262857 23.0445714 16.1063401 23.768381L17.8558912 23.768381zM16.0773878 24.0909932C16.0543005 24.2840105 16.0543005 24.4790916 16.0773878 24.6721088 16.1352925 25.6275374 16.7494966 26.4092517 17.5518912 26.4092517 18.1061224 26.4092517 18.5383401 26.1073197 18.908517 25.7371429L19.0491429 25.8777687C18.5859048 26.4981769 18.0151293 27.0131156 17.1879184 27.0131156 15.5914014 27.0131156 15.2687891 25.4662313 15.2687891 24.8230748 15.2687891 22.8543129 16.5943946 22.2731973 17.2975238 22.2731973 18.1102585 22.2731973 18.985034 22.784 18.9953741 23.849034 19.0005163 23.9095872 19.0005163 23.9704672 18.9953741 24.0310204L18.904381 24.0909932 16.0773878 24.0909932zM19.2290612 26.6015782L19.5020408 26.6015782C19.7812245 26.6015782 19.9818231 26.6015782 19.9818231 26.2686259L19.9818231 23.4478367C19.9818231 23.1376327 19.6116463 23.0755918 19.4606803 22.9949388L19.4606803 22.8460408C20.1927619 22.5337687 20.5939592 22.2731973 20.6870204 22.2731973 20.7449252 22.2731973 20.7759456 22.3021497 20.7759456 22.403483L20.7759456 23.3072109 20.7966259 23.3072109C21.0468571 22.9163537 21.4687347 22.2731973 22.0808707 22.2731973 22.2277868 22.2659068 22.3714288 22.3182084 22.4792619 22.4182558 22.5870951 22.5183032 22.6499948 22.6576305 22.6537143 22.8046803 22.6604465 22.9355393 22.6142767 23.063609 22.5255943 23.1600705 22.4369119 23.2565321 22.3131666 23.3132823 22.1822041 23.317551 21.869932 23.317551 21.869932 23.0755918 21.5183673 23.0755918 21.1040007 23.133557 20.7934491 23.4844627 20.7862857 23.9028027L20.7862857 26.2748299C20.7862857 26.6077823 20.9930884 26.6077823 21.2681361 26.6077823L21.8285714 26.6077823 21.8285714 26.8683537C21.2764082 26.8580136 20.8565986 26.8476735 20.424381 26.8476735 19.9921633 26.8476735 19.5971701 26.8476735 19.2290612 26.8683537L19.2290612 26.6015782zM23.0942041 25.4662313C23.2265578 26.128 23.6277551 26.6905034 24.3619048 26.6905034 24.9533605 26.6905034 25.1725714 26.3285986 25.1725714 25.979102 25.1725714 24.7920544 22.9845986 25.1746395 22.9845986 23.5595102 22.9845986 22.9949388 23.4374966 22.2731973 24.5418231 22.2731973 24.9401355 22.2829499 25.3310883 22.3826322 25.6854422 22.5647891L25.7557551 23.5884626 25.5241361 23.5884626C25.4248707 22.9556463 25.0733061 22.5937415 24.4301497 22.5937415 24.0289524 22.5937415 23.6484354 22.8253605 23.6484354 23.2575782 23.6484354 24.4322177 25.977034 24.0703129 25.977034 25.6461497 25.977034 26.3099864 25.445551 27.0131156 24.2502313 27.0131156 23.8204353 27.0008155 23.4001554 26.8836767 23.0259592 26.6718912L22.9142857 25.5158639 23.0942041 25.4662313zM35.0432653 21.6693333L34.793034 21.6693333C34.6007075 20.4967619 33.7590204 20.0149116 32.6443537 20.0149116 31.4883265 20.0149116 29.8111565 20.7883537 29.8111565 23.1976054 29.8111565 25.2263401 31.2587755 26.6822313 32.8035918 26.6822313 33.8134903 26.6822397 34.671576 25.9437234 34.8219864 24.9450884L35.0536054 25.0050612 34.8219864 26.4816327C34.408381 26.7422041 33.2668299 27.0151837 32.6029932 27.0151837 30.2537143 27.0151837 28.7688707 25.4993197 28.7688707 23.238966 28.7688707 21.1709388 30.6052789 19.7047075 32.5740408 19.7047075 33.3867755 19.7047075 34.1705578 19.9652789 34.941932 20.2382585L35.0432653 21.6693333zM35.4051701 26.6015782L35.5954286 26.6015782C35.8766803 26.6015782 36.0772789 26.6015782 36.0772789 26.2686259L36.0772789 20.6849524C36.0772789 20.0314558 35.928381 20.0128435 35.5457959 19.9011701L35.5457959 19.741932C35.9023075 19.6280049 36.2482734 19.4833911 36.5798095 19.3097143 36.6484485 19.264366 36.7219837 19.2269047 36.7990204 19.1980408 36.8610612 19.1980408 36.8817415 19.2600816 36.8817415 19.3407347L36.8817415 26.2748299C36.8817415 26.6077823 37.1030204 26.6077823 37.3842721 26.6077823L37.5538503 26.6077823 37.5538503 26.8683537C37.2126259 26.8683537 36.8610612 26.8476735 36.4991565 26.8476735 36.1372517 26.8476735 35.777415 26.8476735 35.4051701 26.8683537L35.4051701 26.6015782zM41.8512109 26.3099864C41.8512109 26.4899048 41.9608163 26.5002449 42.1324626 26.5002449 42.2524082 26.5002449 42.4033741 26.4899048 42.5336599 26.4899048L42.5336599 26.6967075C42.0443473 26.7664592 41.560595 26.8708115 41.0860408 27.0089796L41.0364082 26.9779592 41.0364082 26.1652245C40.4346122 26.657415 39.9713741 27.0089796 39.2579048 27.0089796 38.7160816 27.0089796 38.1535782 26.657415 38.1535782 25.8136599L38.1535782 23.2472381C38.1535782 22.9845986 38.1142857 22.7343673 37.5517823 22.6847347L37.5517823 22.4944762C37.9136871 22.4944762 38.7160816 22.4241633 38.8463673 22.4241633 38.9766531 22.4241633 38.9580408 22.4944762 38.9580408 22.7157551L38.9580408 25.3049252C38.9580408 25.6068571 38.9580408 26.4692245 39.8307483 26.4692245 40.1719728 26.4692245 40.6248707 26.2086531 41.0446803 25.8591565L41.0446803 23.1562449C41.0446803 22.9494422 40.5628299 22.8460408 40.2029932 22.7426395L40.2029932 22.5627211C41.1067211 22.5006803 41.6692245 22.4220952 41.7684898 22.4220952 41.8677551 22.4220952 41.8491429 22.4924082 41.8491429 22.6020136L41.8512109 26.3099864zM43.8530612 25.7268027C43.8772242 26.2875592 44.3263183 26.7366534 44.8870748 26.7608163 45.962449 26.7608163 46.4132789 25.7081905 46.4132789 24.8127347 46.4132789 23.7290884 45.586068 22.8253605 44.8084898 22.8253605 44.4362449 22.8253605 44.1239728 23.0673197 43.8530612 23.2989388L43.8530612 25.7268027zM43.8530612 22.9949388C44.2542585 22.6557823 44.7981497 22.2731973 45.3503129 22.2731973 46.5146122 22.2731973 47.2115374 23.2885986 47.2115374 24.382585 47.2115374 25.6978503 46.2478367 27.0131156 44.8105578 27.0131156 44.3234926 27.0119288 43.8441638 26.891209 43.4146395 26.661551L43.1168435 26.8952381 42.9100408 26.7856327C43.0028712 26.1945523 43.0498864 25.5971822 43.0506667 24.9988571L43.0506667 20.6766803C43.0506667 20.0231837 42.8997007 20.0045714 42.5171156 19.892898L42.5171156 19.7336599C42.8739137 19.6205128 43.2199469 19.475871 43.5511293 19.3014422 43.621017 19.2557195 43.6959654 19.2182453 43.7744762 19.1897687 43.834449 19.1897687 43.8530612 19.2518095 43.8530612 19.3324626L43.8530612 22.9949388zM.532027211 32.7001905L.608544218 32.7001905C.805006803 32.7001905 1.02214966 32.6733061 1.02214966 32.3879184L1.02214966 29.5257687C1.02214966 29.242449.815346939 29.2134966.608544218 29.2134966L.532027211 29.2134966.532027211 29.0501224C.738829932 29.0501224 1.07385034 29.0728707 1.34269388 29.0728707 1.61153741 29.0728707 1.94242177 29.0501224 2.19885714 29.0501224L2.19885714 29.2134966 2.12234014 29.2134966C1.92587755 29.2134966 1.71907483 29.242449 1.71907483 29.5257687L1.71907483 32.3879184C1.71907483 32.6733061 1.92587755 32.7001905 2.12234014 32.7001905L2.19885714 32.7001905 2.19885714 32.8635646C1.93621769 32.8635646 1.60946939 32.8428844 1.3364898 32.8428844 1.0635102 32.8428844.745034014 32.8635646.532027211 32.8635646L.532027211 32.7001905z">
						</path>
						<path fill="#231F20"
							d="M2.17610884 32.8408163L2.17610884 32.7250068 2.12234014 32.7250068C1.92794558 32.7250068 1.6942585 32.6898503 1.6942585 32.3879184L1.6942585 29.5257687C1.6942585 29.2238367 1.92794558 29.1907483 2.12234014 29.1907483L2.17610884 29.1907483 2.17610884 29.0749388C1.92380952 29.0749388 1.60740136 29.095619 1.34889796 29.095619 1.09039456 29.095619.773986395 29.0749388.563047619 29.0749388L.563047619 29.1907483.614748299 29.1907483C.809142857 29.1907483 1.04282993 29.2238367 1.04282993 29.5257687L1.04282993 32.3879184C1.04282993 32.6898503.809142857 32.7250068.614748299 32.7250068L.563047619 32.7250068.563047619 32.8408163C.76985034 32.8408163 1.08212245 32.818068 1.34269388 32.818068 1.60326531 32.818068 1.92380952 32.8387483 2.18231293 32.8408163L2.17610884 32.8408163zM2.20506122 32.8863129C1.94035374 32.8863129 1.61360544 32.8656327 1.34269388 32.8656327 1.07178231 32.8656327.753306122 32.8863129.538231293 32.8863129L.515482993 32.8863129.515482993 32.6795102.614748299 32.6795102C.82155102 32.6795102.993197279 32.6588299.995265306 32.3920544L.995265306 29.5257687C.995265306 29.2589932.813278912 29.242449.614748299 29.2383129L.515482993 29.2383129.515482993 29.0315102.538231293 29.0315102C.745034014 29.0315102 1.08005442 29.0521905 1.34889796 29.0521905 1.6177415 29.0521905 1.94655782 29.0315102 2.20506122 29.0315102L2.22987755 29.0315102 2.22987755 29.2383129 2.12854422 29.2383129C1.9217415 29.2383129 1.75009524 29.2589932 1.74802721 29.5257687L1.74802721 32.3879184C1.74802721 32.6546939 1.93001361 32.6712381 2.12854422 32.6753741L2.22987755 32.6753741 2.22987755 32.8821769 2.20506122 32.8863129zM5.95232653 31.7881905L5.96266667 31.7757823 5.96266667 29.7284354C5.98231194 29.5937665 5.94007117 29.4574301 5.84772784 29.3574584 5.7553845 29.2574867 5.62282218 29.2045798 5.48702041 29.2134966L5.36707483 29.2134966 5.36707483 29.0501224C5.62557823 29.0501224 5.87580952 29.0728707 6.1322449 29.0728707 6.35559184 29.0728707 6.5810068 29.0501224 6.80435374 29.0501224L6.80435374 29.2134966 6.72370068 29.2134966C6.49208163 29.2134966 6.23564626 29.2569252 6.23564626 29.9083537L6.23564626 32.3899864C6.23263751 32.574614 6.243699 32.7592026 6.26873469 32.9421497L6.06193197 32.9421497 3.24941497 29.8049524 3.24941497 32.0653061C3.24941497 32.5409524 3.34247619 32.7043265 3.76228571 32.7043265L3.85534694 32.7043265 3.85534694 32.8677007C3.62165986 32.8677007 3.38590476 32.8470204 3.15221769 32.8470204 2.91853061 32.8470204 2.65382313 32.8677007 2.40772789 32.8677007L2.40772789 32.7043265 2.49251701 32.7043265C2.87096599 32.7043265 2.98470748 32.4478912 2.98470748 32.0115374L2.98470748 29.7056871C2.98527259 29.5742583 2.93302847 29.4481092 2.83970537 29.3555638 2.74638227 29.2630184 2.61980044 29.2118317 2.48838095 29.2134966L2.416 29.2134966 2.416 29.0501224C2.62280272 29.0501224 2.82960544 29.0728707 3.03640816 29.0728707 3.19978231 29.0728707 3.35902041 29.0501224 3.52239456 29.0501224L5.95232653 31.7881905z">
						</path>
						<path fill="#231F20"
							d="M6.05986395 32.9214694L6.24185034 32.9214694C6.2193837 32.7466255 6.2097072 32.570375 6.21289796 32.3941224L6.21289796 29.9124898C6.21289796 29.2569252 6.48794558 29.1948844 6.72370068 29.1948844L6.77953741 29.1948844 6.77953741 29.0790748C6.57273469 29.0790748 6.34938776 29.0997551 6.1322449 29.0997551 5.88201361 29.0997551 5.63798639 29.0790748 5.39189116 29.0790748L5.39189116 29.1948844 5.48702041 29.1948844C5.62873271 29.1869746 5.76662426 29.242489 5.86332518 29.3463826 5.9600261 29.4502761 6.00552197 29.5917896 5.98748299 29.7325714L5.98748299 31.8005986 5.98748299 31.8109388 5.96887075 31.827483 3.52653061 29.0749388C3.36522449 29.0749388 3.20598639 29.095619 3.04054422 29.095619 2.8337415 29.095619 2.62693878 29.0749388 2.43668027 29.0749388L2.43668027 29.1907483 2.48631293 29.1907483C2.62376574 29.1890843 2.75613325 29.242668 2.85372221 29.3394794 2.95131117 29.4362907 3.00595211 29.5682253 3.00538776 29.7056871L3.00538776 32.0074014C3.00538776 32.4437551 2.88337415 32.7229388 2.49044898 32.7250068L2.43047619 32.7250068 2.43047619 32.8428844C2.66623129 32.8428844 2.9102585 32.8201361 3.14808163 32.8201361 3.38590476 32.8201361 3.60511565 32.8408163 3.83053061 32.8428844L3.83053061 32.7270748 3.76021769 32.7270748C3.33006803 32.7270748 3.22459864 32.5388844 3.22459864 32.0632381L3.22459864 29.7491156 6.05986395 32.9214694zM6.26666667 32.969034L6.0412517 32.969034 3.27009524 29.8711293 3.27009524 32.0653061C3.27009524 32.5409524 3.34868027 32.6857143 3.76021769 32.6857143L3.87809524 32.6857143 3.87809524 32.892517 3.85327891 32.892517C3.61752381 32.892517 3.38176871 32.8718367 3.14808163 32.8718367 2.91439456 32.8718367 2.65382313 32.892517 2.40565986 32.892517L2.38084354 32.892517 2.38084354 32.6857143 2.49251701 32.6857143C2.85442177 32.6857143 2.95782313 32.4520272 2.96195918 32.0177415L2.96195918 29.7056871C2.9619702 29.5806493 2.91187841 29.4608209 2.82288232 29.3729907 2.73388623 29.2851605 2.61340772 29.2366531 2.48838095 29.2383129L2.39118367 29.2383129 2.39118367 29.0315102 2.416 29.0315102C2.62280272 29.0315102 2.82960544 29.0521905 3.03640816 29.0521905 3.19771429 29.0521905 3.35695238 29.0315102 3.5410068 29.0397823L5.94198639 31.7426939 5.94198639 29.7284354C5.94198639 29.2941497 5.64832653 29.242449 5.48908844 29.2383129L5.34639456 29.2383129 5.34639456 29.0315102 5.36914286 29.0315102C5.62764626 29.0315102 5.87994558 29.0521905 6.13431293 29.0521905 6.35559184 29.0521905 6.5810068 29.0315102 6.80642177 29.0315102L6.83537415 29.0315102 6.83537415 29.2383129 6.72990476 29.2383129C6.5044898 29.2383129 6.27287075 29.2631293 6.26459864 29.9083537L6.26459864 32.3899864C6.26145947 32.5732425 6.27252205 32.7564664 6.29768707 32.9380136L6.29768707 32.964898 6.26666667 32.969034zM7.62329252 29.323102C7.20968707 29.323102 7.19727891 29.4223673 7.11455782 29.8214966L6.95118367 29.8214966C6.97186395 29.6684626 6.9987483 29.5154286 7.01736054 29.3561905 7.03812348 29.2026528 7.04848722 29.0478875 7.04838095 28.8929524L7.18073469 28.8929524C7.22416327 29.0563265 7.36065306 29.0501224 7.50955102 29.0501224L10.3262041 29.0501224C10.475102 29.0501224 10.6115918 29.0501224 10.621932 28.8805442L10.7522177 28.9032925C10.7315374 29.0501224 10.7087891 29.1969524 10.6943129 29.3458503 10.6798367 29.4947483 10.6943129 29.6395102 10.6943129 29.7884082L10.5288707 29.848381C10.5288707 29.6415782 10.4916463 29.323102 10.1152653 29.323102L9.2177415 29.323102 9.2177415 32.2307483C9.2177415 32.6443537 9.41006803 32.7001905 9.67270748 32.7001905L9.77610884 32.7001905 9.77610884 32.8635646C9.56930612 32.8635646 9.18051701 32.8428844 8.88478912 32.8428844 8.58906122 32.8428844 8.17545578 32.8635646 7.96244898 32.8635646L7.96244898 32.7001905 8.07619048 32.7001905C8.37812245 32.7001905 8.52908844 32.6733061 8.52908844 32.2410884L8.52908844 29.323102 7.62329252 29.323102z">
						</path>
						<path fill="#231F20"
							d="M9.77610884 32.892517C9.56930612 32.892517 9.17844898 32.8718367 8.88478912 32.8718367 8.55804082 32.8718367 8.17545578 32.892517 7.96244898 32.892517L7.93763265 32.892517 7.93763265 32.6857143 8.07619048 32.6857143C8.37812245 32.6857143 8.48979592 32.6857143 8.50427211 32.2514286L8.50427211 29.3561905 7.62329252 29.3561905 7.62329252 29.3065578 8.5414966 29.3065578 8.5414966 32.2493605C8.5414966 32.6877823 8.36571429 32.7332789 8.06585034 32.7332789L7.98519728 32.7332789 7.98519728 32.8490884C8.192 32.8490884 8.56838095 32.8263401 8.88478912 32.8263401 9.20119728 32.8263401 9.53414966 32.8470204 9.75129252 32.8490884L9.75129252 32.7332789 9.67270748 32.7332789C9.408 32.7332789 9.1949932 32.667102 9.1949932 32.2390204L9.1949932 29.2982857 10.1152653 29.2982857C10.4813061 29.2982857 10.5288707 29.6126259 10.5412789 29.8152925L10.6591565 29.7718639C10.6591565 29.6291701 10.6591565 29.4864762 10.6694966 29.3417143 10.6798367 29.1969524 10.7046531 29.0625306 10.7253333 28.9281088L10.6426122 28.9157007C10.6177959 29.0728707 10.4647619 29.0832109 10.3262041 29.0811429L7.48059864 29.0811429C7.35238095 29.0811429 7.2117551 29.0811429 7.16212245 28.9219048L7.07319728 28.9219048C7.07166722 29.0699809 7.06061493 29.2178053 7.04010884 29.3644626 7.02356463 29.5154286 6.9987483 29.6601905 6.98013605 29.8049524L7.09594558 29.8049524C7.16832653 29.4223673 7.21382313 29.3003537 7.62329252 29.3044898L7.62329252 29.3541224C7.20968707 29.3541224 7.22623129 29.4285714 7.13730612 29.8318367L7.13730612 29.850449 6.9305034 29.850449 6.9305034 29.8235646C6.9532517 29.6705306 6.98013605 29.5174966 6.99668027 29.3582585 7.01915579 29.2062651 7.0302162 29.0528019 7.02976871 28.8991565L7.02976871 28.8743401 7.20348299 28.8743401 7.20348299 28.8908844C7.24070748 29.0294422 7.34204082 29.0294422 7.48059864 29.0335782L10.3262041 29.0335782C10.4792381 29.0335782 10.5888435 29.0335782 10.5991837 28.8846803L10.5991837 28.8598639 10.624 28.8598639 10.779102 28.8846803 10.779102 28.9094966C10.7563537 29.0563265 10.7356735 29.2031565 10.7191293 29.3499864 10.702585 29.4968163 10.7191293 29.6415782 10.7191293 29.7904762L10.7191293 29.8070204 10.702585 29.8070204 10.5102585 29.8773333 10.5102585 29.8463129C10.4957823 29.6395102 10.475102 29.3437823 10.1297415 29.3437823L9.24255782 29.3437823 9.24255782 32.2307483C9.24255782 32.6443537 9.41213605 32.6712381 9.67270748 32.6753741L9.79885714 32.6753741 9.79885714 32.8821769 9.77610884 32.892517zM10.928 32.7001905L11.004517 32.7001905C11.2113197 32.7001905 11.4181224 32.6733061 11.4181224 32.3879184L11.4181224 29.5257687C11.4181224 29.242449 11.2113197 29.2134966 11.004517 29.2134966L10.928 29.2134966 10.928 29.0501224C11.2609524 29.0501224 11.8296599 29.0728707 12.2866939 29.0728707 12.7437279 29.0728707 13.3207075 29.0501224 13.6867483 29.0501224 13.6867483 29.2858776 13.6867483 29.6457143 13.6970884 29.8773333L13.5337143 29.9207619C13.5068299 29.5671293 13.4406531 29.2838095 12.8678095 29.2838095L12.1088435 29.2838095 12.1088435 30.7128163 12.7582041 30.7128163C13.0849524 30.7128163 13.1573333 30.5287619 13.1904218 30.233034L13.3537959 30.233034C13.3537959 30.4398367 13.3372517 30.6590476 13.3372517 30.8720544 13.3372517 31.0850612 13.3372517 31.2856599 13.3537959 31.4924626L13.1904218 31.525551C13.1573333 31.1988027 13.1407891 30.9857959 12.7644082 30.9857959L12.1088435 30.9857959 12.1088435 32.2721088C12.1088435 32.6278095 12.4252517 32.6278095 12.7747483 32.6278095 13.4303129 32.6278095 13.7198367 32.584381 13.8832109 31.9619048L14.0362449 31.9991293C13.965932 32.2886531 13.8997551 32.5781769 13.8501224 32.8677007 13.5006259 32.8677007 12.8719456 32.8470204 12.3818231 32.8470204 11.8917007 32.8470204 11.2402721 32.8677007 10.9342041 32.8677007L10.928 32.7001905z">
						</path>
						<path fill="#231F20"
							d="M13.8294422 32.8408163C13.8790748 32.5637007 13.9411156 32.2886531 14.0072925 32.0136054L13.8997551 31.9867211C13.736381 32.5967891 13.4199728 32.6526259 12.7747483 32.6484898 12.4293878 32.6484898 12.0860952 32.6484898 12.0840272 32.2679728L12.0840272 30.9713197 12.7623401 30.9713197C13.1449252 30.9713197 13.1759456 31.1988027 13.211102 31.5090068L13.3289796 31.4841905C13.3186395 31.2773878 13.3124354 31.0809252 13.3124354 30.8803265 13.3124354 30.6797279 13.3124354 30.4667211 13.3289796 30.2599184L13.211102 30.2599184C13.1800816 30.5453061 13.0911565 30.7459048 12.7582041 30.7417687L12.0840272 30.7417687 12.0840272 29.2631293 12.8678095 29.2631293C13.436517 29.2631293 13.5295782 29.5526531 13.5543946 29.8959456L13.6722721 29.8649252C13.6722721 29.7098231 13.6557279 29.5112925 13.6557279 29.3293061 13.6557279 29.2362449 13.6557279 29.1473197 13.6557279 29.0708027 13.285551 29.0708027 12.7313197 29.091483 12.2804898 29.091483 11.8296599 29.091483 11.2795646 29.0708027 10.9445442 29.0708027L10.9445442 29.1866122 10.9983129 29.1866122C11.1927075 29.1866122 11.4243265 29.2197007 11.4263946 29.5216327L11.4263946 32.3837823C11.4263946 32.6857143 11.1927075 32.7188027 10.9983129 32.7208707L10.9507483 32.7208707 10.9507483 32.8366803C11.2692245 32.8366803 11.9020408 32.813932 12.3818231 32.813932 12.8616054 32.813932 13.4778776 32.8346122 13.8294422 32.8366803L13.8294422 32.8408163zM13.8501224 32.8821769C13.5006259 32.8821769 12.8719456 32.8614966 12.3818231 32.8614966 11.8917007 32.8614966 11.2402721 32.8821769 10.9342041 32.8821769L10.9114558 32.8821769 10.9114558 32.6753741 11.0107211 32.6753741C11.2175238 32.6753741 11.3891701 32.6546939 11.3912381 32.3879184L11.3912381 29.5257687C11.3912381 29.2589932 11.2092517 29.242449 11.0107211 29.2383129L10.9114558 29.2383129 10.9114558 29.0315102 10.9342041 29.0315102C11.2671565 29.0315102 11.8358639 29.0521905 12.292898 29.0521905 12.749932 29.0521905 13.3269116 29.0315102 13.6929524 29.0315102L13.7157007 29.0315102 13.7157007 29.0563265C13.7157007 29.1369796 13.7157007 29.2341769 13.7157007 29.3375782 13.7157007 29.5257687 13.7157007 29.7325714 13.7322449 29.8897415L13.7322449 29.9083537 13.7136327 29.9083537 13.5213061 29.9579864 13.5213061 29.929034C13.4882177 29.5754014 13.4406531 29.3086259 12.8781497 29.3086259L12.1315918 29.3086259 12.1315918 30.6921361 12.752 30.6921361C13.0663401 30.6921361 13.1221769 30.5266939 13.1656054 30.233034L13.1656054 30.2102857 13.3724082 30.2102857 13.3724082 30.235102C13.3724082 30.4419048 13.3558639 30.6611156 13.3558639 30.8741224 13.3558639 31.0871293 13.3558639 31.2877279 13.3724082 31.4945306L13.3724082 31.5131429 13.3517279 31.5131429 13.1614694 31.5503673 13.1614694 31.525551C13.1242449 31.1905306 13.1221769 31.0085442 12.7478639 31.0044082L12.1274558 31.0044082 12.1274558 32.2452245C12.1274558 32.5781769 12.4149116 32.5761088 12.7706122 32.5781769 13.4282449 32.5781769 13.6908844 32.5409524 13.8563265 31.9288163L13.8563265 31.906068 13.8790748 31.906068 14.0527891 31.9515646 14.0527891 31.9743129C13.9824762 32.2638367 13.9162993 32.5512925 13.8666667 32.8408163L13.8666667 32.8594286 13.8501224 32.8821769zM15.4735238 30.8968707L15.7402993 30.8968707C16.2862585 30.8968707 16.5819864 30.690068 16.5819864 30.0448435 16.5975509 29.8287353 16.5184608 29.6165254 16.3652534 29.463318 16.212046 29.3101106 15.9998361 29.2310206 15.7837279 29.246585 15.6799505 29.2476248 15.5763426 29.2552227 15.4735238 29.2693333L15.4735238 30.8968707zM14.7745306 29.6291701C14.7745306 29.2300408 14.5553197 29.2155646 14.3857415 29.2155646L14.2802721 29.2155646 14.2802721 29.0521905C14.4560544 29.0521905 14.7952109 29.0749388 15.1281633 29.0749388 15.4611156 29.0749388 15.717551 29.0521905 16.0070748 29.0521905 16.6936599 29.0521905 17.3078639 29.2383129 17.3078639 30.0138231 17.3078639 30.5060136 16.9790476 30.8058776 16.548898 30.9754558L17.4815782 32.3734422C17.5865645 32.5707925 17.7895998 32.6964058 18.0130612 32.7022585L18.0130612 32.8656327C17.8310748 32.8656327 17.6573605 32.8449524 17.4774422 32.8449524 17.2975238 32.8449524 17.1320816 32.8656327 16.9645714 32.8656327 16.544606 32.3028085 16.1645394 31.7112867 15.8271565 31.0954014L15.4735238 31.0954014 15.4735238 32.2721088C15.4735238 32.6857143 15.6803265 32.7084626 15.9202177 32.7084626L16.019483 32.7084626 16.019483 32.8718367C15.7072109 32.8718367 15.3990748 32.8511565 15.0785306 32.8511565 14.8179592 32.8511565 14.5594558 32.8718367 14.2864762 32.8718367L14.2864762 32.7084626 14.3857415 32.7084626C14.5925442 32.7084626 14.7745306 32.6154014 14.7745306 32.4127347L14.7745306 29.6291701z">
						</path>
						<path fill="#231F20"
							d="M15.7402993 30.8741224C16.2800544 30.8741224 16.553034 30.6797279 16.5675102 30.0469116 16.5824278 29.8370146 16.5055258 29.6309736 16.3567319 29.4821797 16.207938 29.3333857 16.001897 29.2564838 15.792 29.2714014 15.6958406 29.2722121 15.5998294 29.2791194 15.5045442 29.2920816L15.5045442 30.8761905 15.7402993 30.8741224zM15.4735238 30.919619L15.4487075 30.919619 15.4487075 29.246585 15.4693878 29.246585C15.5737535 29.234411 15.6786668 29.2275088 15.7837279 29.2259048 16.0078752 29.2089967 16.2282474 29.2907034 16.3871938 29.4496497 16.5461401 29.6085961 16.6278468 29.8289684 16.6109388 30.0531156 16.6109388 30.7066122 16.2965986 30.9278912 15.7465034 30.9278912L15.4735238 30.919619zM15.4735238 31.070585L15.8457687 31.070585 15.8457687 31.0829932C16.1829575 31.6909337 16.5565725 32.2779444 16.9645714 32.8408163 17.1300136 32.8408163 17.3057959 32.818068 17.4753741 32.818068 17.6449524 32.818068 17.8186667 32.8387483 17.9882449 32.8408163L17.9882449 32.7208707C17.7657087 32.7115824 17.565228 32.5837167 17.462966 32.3858503L16.5116735 30.9630476 16.5385578 30.9630476C16.9666395 30.7934694 17.2830476 30.5018776 17.2830476 30.0220952 17.2830476 29.2631293 16.6936599 29.0873469 16.0070748 29.0852789 15.719619 29.0852789 15.4569796 29.1059592 15.1281633 29.1059592 14.7993469 29.1059592 14.4829388 29.0852789 14.3009524 29.0852789L14.3009524 29.2010884 14.3774694 29.2010884C14.5470476 29.2010884 14.7910748 29.2300408 14.7910748 29.6395102L14.7910748 32.4148027C14.7910748 32.6360816 14.5842721 32.7353469 14.3774694 32.7353469L14.3009524 32.7353469 14.3009524 32.8511565C14.5635918 32.8511565 14.8138231 32.8284082 15.0702585 32.8284082 15.3763265 32.8284082 15.6906667 32.8490884 15.9863946 32.8511565L15.9863946 32.7353469 15.9119456 32.7353469C15.6637823 32.7353469 15.4404354 32.7043265 15.4404354 32.2721088L15.4404354 31.0809252 15.4735238 31.070585zM18.0192653 32.892517C17.8352109 32.892517 17.6614966 32.8718367 17.4815782 32.8718367 17.3016599 32.8718367 17.1403537 32.892517 16.9500952 32.8842449 16.5342962 32.3234313 16.1563863 31.7354946 15.8188844 31.1243537L15.4962721 31.1243537 15.4962721 32.2721088C15.4962721 32.6857143 15.6679184 32.6857143 15.9202177 32.6857143L16.0422313 32.6857143 16.0422313 32.892517 16.017415 32.892517C15.7051429 32.892517 15.3970068 32.8718367 15.0785306 32.8718367 14.8179592 32.8718367 14.5615238 32.892517 14.2864762 32.892517L14.2637279 32.892517 14.2637279 32.6857143 14.3857415 32.6857143C14.5822041 32.6857143 14.7476463 32.5988571 14.7497143 32.4148027L14.7497143 29.6291701C14.7497143 29.242449 14.5553197 29.244517 14.3857415 29.2383129L14.2637279 29.2383129 14.2637279 29.0315102 14.2802721 29.0315102C14.4581224 29.0315102 14.7952109 29.0521905 15.1281633 29.0521905 15.4611156 29.0521905 15.715483 29.0315102 16.0070748 29.0315102 16.6957279 29.0315102 17.3306122 29.2217687 17.3326803 30.0158912 17.3326803 30.5080816 17.005932 30.8162177 16.5840544 30.9878639L17.5022585 32.363102C17.6016072 32.5552454 17.7988365 32.6769232 18.0151293 32.6795102L18.0358095 32.6795102 18.0358095 32.8863129 18.0192653 32.892517zM21.7251701 31.7881905L21.7251701 31.7757823 21.7251701 29.7284354C21.7448153 29.5937665 21.7025746 29.4574301 21.6102312 29.3574584 21.5178879 29.2574867 21.3853256 29.2045798 21.2495238 29.2134966L21.1316463 29.2134966 21.1316463 29.0501224C21.3880816 29.0501224 21.6383129 29.0728707 21.8947483 29.0728707 22.1511837 29.0728707 22.3414422 29.0501224 22.5689252 29.0501224L22.5689252 29.2134966 22.4862041 29.2134966C22.2566531 29.2134966 22.0002177 29.2569252 22.0002177 29.9083537L22.0002177 32.3899864C21.9965556 32.5745609 22.0069256 32.7591468 22.0312381 32.9421497L21.8244354 32.9421497 19.0119184 29.8049524 19.0119184 32.0653061C19.0119184 32.5409524 19.1029116 32.7043265 19.5247891 32.7043265L19.6178503 32.7043265 19.6178503 32.8677007C19.3820952 32.8677007 19.1484082 32.8470204 18.9126531 32.8470204 18.676898 32.8470204 18.4142585 32.8677007 18.1702313 32.8677007L18.1702313 32.7043265 18.2446803 32.7043265C18.6231293 32.7043265 18.7389388 32.4478912 18.7389388 32.0115374L18.7389388 29.7056871C18.7389492 29.574068 18.6862428 29.4479279 18.592593 29.3554439 18.4989432 29.2629598 18.3721529 29.2118375 18.2405442 29.2134966L18.1702313 29.2134966 18.1702313 29.0501224C18.377034 29.0501224 18.5838367 29.0728707 18.7906395 29.0728707 18.9519456 29.0728707 19.1111837 29.0501224 19.2766259 29.0501224L21.7251701 31.7881905z">
						</path>
						<path fill="#231F20"
							d="M21.8471837 32.9214694L22.027102 32.9214694C22.0045765 32.7466309 21.9948998 32.5703761 21.9981497 32.3941224L21.9981497 29.9124898C21.9981497 29.2569252 22.2752653 29.1948844 22.5089524 29.1948844L22.552381 29.1948844 22.552381 29.0790748C22.3455782 29.0790748 22.1201633 29.0997551 21.9030204 29.0997551 21.6527891 29.0997551 21.4087619 29.0790748 21.1626667 29.0790748L21.1626667 29.1948844 21.2577959 29.1948844C21.3995082 29.1869746 21.5373998 29.242489 21.6341007 29.3463826 21.7308016 29.4502761 21.7762975 29.5917896 21.7582585 29.7325714L21.7582585 31.8005986 21.7582585 31.8109388 21.7417143 31.827483 19.3117823 29.0811429C19.1484082 29.0811429 18.9891701 29.1018231 18.8257959 29.1018231 18.6189932 29.1018231 18.4121905 29.0811429 18.2198639 29.0811429L18.2198639 29.1969524 18.2674286 29.1969524C18.4048814 29.1952884 18.5372489 29.2488721 18.6348379 29.3456835 18.7324268 29.4424948 18.7870678 29.5744294 18.7865034 29.7118912L18.7865034 32.0115374C18.7865034 32.4499592 18.6644898 32.7291429 18.2715646 32.7312109L18.2095238 32.7312109 18.2095238 32.8470204C18.4452789 32.8470204 18.6893061 32.8242721 18.9291973 32.8242721 19.1690884 32.8242721 19.3841633 32.8449524 19.6095782 32.8470204L19.6095782 32.7312109 19.5413333 32.7312109C19.1111837 32.7312109 19.0036463 32.5430204 19.0036463 32.0673741L19.0036463 29.7491156 21.8471837 32.9214694zM22.0539864 32.969034L21.8306395 32.969034 19.057415 29.8794014 19.057415 32.0653061C19.057415 32.5409524 19.136 32.6857143 19.5475374 32.6857143L19.6571429 32.6857143 19.6571429 32.892517 19.6323265 32.892517C19.3965714 32.892517 19.1628844 32.8718367 18.9291973 32.8718367 18.6955102 32.8718367 18.4328707 32.892517 18.1867755 32.892517L18.1619592 32.892517 18.1619592 32.6857143 18.2612245 32.6857143C18.6231293 32.6857143 18.7265306 32.4520272 18.7306667 32.0156735L18.7306667 29.7056871C18.7306777 29.5806493 18.6805859 29.4608209 18.5915898 29.3729907 18.5025937 29.2851605 18.3821152 29.2366531 18.2570884 29.2383129L18.1619592 29.2383129 18.1619592 29.0315102 18.1867755 29.0315102C18.3935782 29.0315102 18.600381 29.0521905 18.8071837 29.0521905 18.9664218 29.0521905 19.1256599 29.0315102 19.3076463 29.0377143L21.7251701 31.7385578 21.7251701 29.7284354C21.7251701 29.2941497 21.4315102 29.240381 21.2722721 29.2383129L21.1295782 29.2383129 21.1295782 29.0315102 21.1523265 29.0315102C21.4108299 29.0315102 21.6631293 29.0521905 21.9174966 29.0521905 22.1718639 29.0521905 22.3641905 29.0315102 22.5896054 29.0315102L22.6144218 29.0315102 22.6144218 29.2383129 22.5089524 29.2383129C22.2835374 29.2383129 22.0498503 29.2631293 22.0457143 29.9083537L22.0457143 32.3899864C22.0416002 32.5732623 22.0526675 32.7565641 22.0788027 32.9380136L22.0788027 32.964898 22.0539864 32.969034zM24.2564354 29.6622585L24.2440272 29.6622585 23.7373605 31.2091429 24.758966 31.2091429 24.2564354 29.6622585zM23.4581769 32.0839184C23.4050266 32.2176223 23.3648598 32.3561285 23.3382313 32.4975238 23.3382313 32.662966 23.5677823 32.6898503 23.7518367 32.6898503L23.8118095 32.6898503 23.8118095 32.8532245C23.5925986 32.8408163 23.3713197 32.8325442 23.1500408 32.8325442 22.9287619 32.8325442 22.7591837 32.8325442 22.5606531 32.8532245L22.5606531 32.6898503 22.5937415 32.6898503C22.8135662 32.6896991 23.0071041 32.5449663 23.0693878 32.3341497L23.9420952 29.8277007C24.0289458 29.6074513 24.0980991 29.3806285 24.148898 29.1493878 24.3216692 29.0872646 24.4879115 29.0082995 24.6452245 28.9136327 24.659167 28.9082397 24.6737762 28.9047613 24.6886531 28.9032925 24.7038639 28.9006046 24.7192385 28.9070781 24.7279456 28.9198367 24.7424218 28.9632653 24.758966 29.012898 24.7755102 29.0563265L25.7826395 31.9143401C25.8467483 32.1045986 25.9129252 32.3072653 25.9894422 32.4706395 26.0459549 32.6177044 26.1948329 32.707882 26.3513469 32.6898503L26.3844354 32.6898503 26.3844354 32.8532245C26.1362721 32.8408163 25.8901769 32.8325442 25.6296054 32.8325442 25.369034 32.8325442 25.0877823 32.8325442 24.8023946 32.8532245L24.8023946 32.6898503 24.8623673 32.6898503C24.988517 32.6898503 25.2035918 32.667102 25.2035918 32.5306122 25.1820636 32.3956759 25.1445763 32.263776 25.0919184 32.1376871L24.8851156 31.5048707 23.6442993 31.5048707 23.4581769 32.0839184z">
						</path>
						<path fill="#231F20"
							d="M23.768381 31.1843265L24.7258776 31.1843265 24.2502313 29.7201633 23.768381 31.1843265zM23.7042721 31.2318912L24.227483 29.6374422 24.2564354 29.6374422 24.2564354 29.6622585 24.2564354 29.6622585 24.2564354 29.6374422 24.2729796 29.6374422 24.7920544 31.2318912 23.7042721 31.2318912zM24.8210068 32.8387483C25.0919184 32.8284082 25.3566259 32.818068 25.6171973 32.818068 25.8777687 32.818068 26.1093878 32.8284082 26.3472109 32.8387483L26.3472109 32.7250068 26.3472109 32.7250068C26.1812505 32.7415022 26.024397 32.6462095 25.9625578 32.4913197 25.8922449 32.3258776 25.826068 32.1232109 25.7557551 31.9308844L24.7486259 29.0749388C24.7320816 29.0315102 24.7176054 28.9818776 24.7031293 28.942585 24.7031293 28.942585 24.7031293 28.942585 24.7031293 28.942585L24.7031293 28.942585C24.6921713 28.9408089 24.6809988 28.9408089 24.6700408 28.942585 24.5188553 29.0370709 24.3553039 29.1101471 24.1840544 29.1597279 24.1334941 29.3923785 24.0643377 29.6205946 23.9772517 29.8421769L23.1045442 32.3506939C23.0376458 32.5703822 22.835791 32.7211451 22.6061497 32.7229388L22.6061497 32.7229388 22.6061497 32.8366803C22.7922721 32.8263401 22.9825306 32.816 23.1727891 32.816 23.3630476 32.816 23.5988027 32.8263401 23.8076735 32.8366803L23.8076735 32.7229388 23.772517 32.7229388C23.5946667 32.7229388 23.3465034 32.7001905 23.3382313 32.5057959 23.3648311 32.358117 23.4056936 32.2133666 23.4602449 32.0735782L23.4829932 32.0735782 23.4602449 32.0735782 23.6401633 31.4903946 24.914068 31.4903946 25.1332789 32.1376871C25.1858633 32.2665088 25.222666 32.4012204 25.2428844 32.5388844 25.2428844 32.7063946 25.0050612 32.7188027 24.8809796 32.7229388L24.8272109 32.7229388 24.8210068 32.8387483zM26.3699592 32.8863129C26.1238639 32.8759728 25.8777687 32.8656327 25.6171973 32.8656327 25.3566259 32.8656327 25.0774422 32.8656327 24.7899864 32.8863129L24.7651701 32.8863129 24.7651701 32.6795102 24.8478912 32.6795102C24.9761088 32.6795102 25.1622313 32.6505578 25.1642993 32.5450884 25.1426599 32.4130864 25.1058822 32.2840175 25.0546939 32.1604354L24.8478912 31.5400272 23.6422313 31.5400272 23.4726531 32.0921905C23.4186793 32.2256107 23.3784885 32.3641998 23.3527075 32.5057959 23.3527075 32.6402177 23.5595102 32.6733061 23.7394286 32.6733061L23.8242177 32.6733061 23.8242177 32.8801088 23.7994014 32.8801088C23.5801905 32.8697687 23.3568435 32.8594286 23.1397007 32.8594286 22.9225578 32.8594286 22.7467755 32.8594286 22.5503129 32.8801088L22.5254966 32.8801088 22.5254966 32.6733061 22.5813333 32.6733061C22.7911236 32.6741535 22.9760088 32.5357007 23.0342313 32.3341497L23.9090068 29.8277007C23.9937597 29.6008323 24.0662455 29.3695684 24.1261497 29.1349116 24.2986634 29.0730168 24.4648623 28.9947649 24.6224762 28.9012245 24.6385399 28.8932051 24.6562232 28.8889611 24.6741769 28.8888163 24.6985368 28.8864203 24.7220285 28.8985712 24.7341497 28.9198367 24.7506939 28.9632653 24.7672381 29.012898 24.7837823 29.0563265L25.7888435 31.9143401C25.8550204 32.1066667 25.9191293 32.3072653 25.9956463 32.4685714 26.0465895 32.6082027 26.1873438 32.6940286 26.3348027 32.6753741L26.3885714 32.6753741 26.3885714 32.8821769 26.3699592 32.8863129zM26.6119184 29.323102C26.1983129 29.323102 26.1838367 29.4223673 26.1031837 29.8214966L25.9377415 29.8214966C25.9604898 29.6684626 25.9873741 29.5154286 26.0039184 29.3561905 26.0263928 29.202809 26.0374527 29.047971 26.0370068 28.8929524L26.1693605 28.8929524C26.2107211 29.0563265 26.3492789 29.0501224 26.4961088 29.0501224L29.3148299 29.0501224C29.4616599 29.0501224 29.5981497 29.0501224 29.6105578 28.8805442L29.7408435 28.9032925C29.7201633 29.0501224 29.697415 29.1969524 29.6808707 29.3458503 29.6643265 29.4947483 29.6684626 29.6395102 29.6684626 29.7884082L29.5050884 29.848381C29.5050884 29.6415782 29.4678639 29.323102 29.091483 29.323102L28.1960272 29.323102 28.1960272 32.2307483C28.1960272 32.6443537 28.3862857 32.7001905 28.6489252 32.7001905L28.7523265 32.7001905 28.7523265 32.8635646C28.5455238 32.8635646 28.1588027 32.8428844 27.8630748 32.8428844 27.5342585 32.8428844 27.1516735 32.8635646 26.9386667 32.8635646L26.9386667 32.7001905 27.042068 32.7001905C27.344 32.7001905 27.497034 32.6733061 27.497034 32.2410884L27.497034 29.323102 26.6119184 29.323102z">
						</path>
						<path fill="#231F20"
							d="M28.7564626 32.892517C28.5496599 32.892517 28.1588027 32.8718367 27.8672109 32.8718367 27.5404626 32.8718367 27.1578776 32.892517 26.9428027 32.892517L26.9179864 32.892517 26.9179864 32.6857143 27.0462041 32.6857143C27.3481361 32.6857143 27.4701497 32.6857143 27.4763537 32.2514286L27.4763537 29.3561905 26.6057143 29.3561905 26.6057143 29.3065578 27.5239184 29.3065578 27.5239184 32.2493605C27.5239184 32.6877823 27.3481361 32.7312109 27.0462041 32.7332789L26.965551 32.7332789 26.965551 32.8490884C27.1723537 32.8490884 27.5487347 32.8263401 27.8672109 32.8263401 28.1525986 32.8263401 28.5165714 32.8470204 28.7337143 32.8490884L28.7337143 32.7332789 28.6530612 32.7332789C28.3904218 32.7332789 28.177415 32.6691701 28.177415 32.2390204L28.177415 29.2982857 29.095619 29.2982857C29.4616599 29.2982857 29.5092245 29.6126259 29.5216327 29.8152925L29.6395102 29.7718639C29.6395102 29.6291701 29.6395102 29.4864762 29.6519184 29.3437823 29.6643265 29.2010884 29.6870748 29.0625306 29.7077551 28.9301769L29.625034 28.9157007C29.6002177 29.0728707 29.4451156 29.0832109 29.3086259 29.0811429L26.4671565 29.0811429C26.3389388 29.0811429 26.200381 29.0811429 26.1507483 28.9219048L26.0680272 28.9219048C26.0668438 29.0700722 26.0550952 29.2179666 26.0328707 29.3644626 26.0183946 29.5154286 25.9915102 29.6601905 25.9708299 29.8049524L26.0887075 29.8049524C26.1610884 29.4223673 26.2086531 29.2982857 26.6181224 29.3044898L26.6181224 29.3541224C26.204517 29.3541224 26.2210612 29.4285714 26.1321361 29.8318367L26.1321361 29.850449 25.9253333 29.850449 25.9253333 29.8235646C25.9480816 29.6705306 25.974966 29.5174966 25.9894422 29.3603265 26.0118449 29.2076312 26.0229046 29.053486 26.0225306 28.8991565L26.0225306 28.8743401 26.1962449 28.8743401 26.1962449 28.8908844C26.2355374 29.0294422 26.3348027 29.0294422 26.4733605 29.0335782L29.3148299 29.0335782C29.4657959 29.0335782 29.5774694 29.0335782 29.5857415 28.8846803L29.5857415 28.8598639 29.6105578 28.8598639 29.7656599 28.8846803 29.7656599 28.9094966C29.7429116 29.0563265 29.7222313 29.2031565 29.7056871 29.3499864 29.6891429 29.4968163 29.6953469 29.6415782 29.6953469 29.7904762L29.6953469 29.8070204 29.6788027 29.8070204 29.4864762 29.8773333 29.4864762 29.8463129C29.472 29.6395102 29.4513197 29.3437823 29.1059592 29.3437823L28.2332517 29.3437823 28.2332517 32.2307483C28.2332517 32.6443537 28.4028299 32.6712381 28.6634014 32.6753741L28.789551 32.6753741 28.789551 32.8821769 28.7564626 32.892517zM29.9414422 32.7001905L30.0179592 32.7001905C30.2247619 32.7001905 30.4315646 32.6733061 30.4315646 32.3879184L30.4315646 29.5257687C30.4315646 29.242449 30.2247619 29.2134966 30.0179592 29.2134966L29.9414422 29.2134966 29.9414422 29.0501224C30.1482449 29.0501224 30.4832653 29.0728707 30.7500408 29.0728707 31.0168163 29.0728707 31.3518367 29.0501224 31.6103401 29.0501224L31.6103401 29.2134966 31.5317551 29.2134966C31.3352925 29.2134966 31.1284898 29.242449 31.1284898 29.5257687L31.1284898 32.3879184C31.1284898 32.6733061 31.3352925 32.7001905 31.5317551 32.7001905L31.6103401 32.7001905 31.6103401 32.8635646C31.3477007 32.8635646 31.0188844 32.8428844 30.7459048 32.8428844 30.4729252 32.8428844 30.156517 32.8635646 29.9414422 32.8635646L29.9414422 32.7001905z">
						</path>
						<path fill="#231F20"
							d="M31.5855238 32.8408163L31.5855238 32.7250068 31.5338231 32.7250068C31.3270204 32.7250068 31.1057415 32.6898503 31.1057415 32.3879184L31.1057415 29.5257687C31.1057415 29.2238367 31.3373605 29.1907483 31.5338231 29.1907483L31.5855238 29.1907483 31.5855238 29.0749388C31.3332245 29.0749388 31.0168163 29.095619 30.7583129 29.095619 30.4998095 29.095619 30.1854694 29.0749388 29.9745306 29.0749388L29.9745306 29.1907483 30.0282993 29.1907483C30.2206259 29.1907483 30.4543129 29.2238367 30.4543129 29.5257687L30.4543129 32.3879184C30.4543129 32.6898503 30.2206259 32.7250068 30.0282993 32.7250068L29.9745306 32.7250068 29.9745306 32.8408163C30.1813333 32.8408163 30.4936054 32.818068 30.7541769 32.818068 31.0147483 32.818068 31.3352925 32.8387483 31.5937959 32.8408163L31.5855238 32.8408163zM31.6186122 32.8863129C31.3539048 32.8863129 31.0271565 32.8656327 30.7541769 32.8656327 30.4811973 32.8656327 30.1647891 32.8863129 29.9497143 32.8863129L29.926966 32.8863129 29.926966 32.6795102 30.0282993 32.6795102C30.2247619 32.6795102 30.4067483 32.6588299 30.4067483 32.3920544L30.4067483 29.5257687C30.4067483 29.2589932 30.2247619 29.242449 30.0282993 29.2383129L29.926966 29.2383129 29.926966 29.0315102 29.9497143 29.0315102C30.156517 29.0315102 30.4936054 29.0521905 30.7583129 29.0521905 31.0230204 29.0521905 31.3580408 29.0315102 31.6186122 29.0315102L31.6392925 29.0315102 31.6392925 29.2383129 31.5420952 29.2383129C31.3352925 29.2383129 31.1615782 29.2589932 31.1595102 29.5257687L31.1595102 32.3879184C31.1595102 32.6546939 31.3414966 32.6733061 31.5420952 32.6753741L31.6392925 32.6753741 31.6392925 32.8821769 31.6186122 32.8863129zM33.8706939 32.7063946C34.9295238 32.7063946 35.1115102 31.7716463 35.1115102 30.9733878 35.1115102 30.1751293 34.6813605 29.2093605 33.7734966 29.2093605 32.818068 29.2093605 32.5326803 30.0613878 32.5326803 30.7934694 32.5326803 31.7716463 32.9814422 32.7063946 33.8665578 32.7063946M33.7838367 28.9694694C34.9481361 28.9694694 35.8766803 29.6912109 35.8766803 30.8534422 35.9017722 31.4114657 35.692813 31.9546373 35.3001948 32.3519669 34.9075767 32.7492965 34.3669362 32.9647198 33.8086531 32.9462857 32.6484898 32.9462857 31.7633741 32.1583673 31.7633741 30.9837279 31.7560544 30.4469428 31.9662047 29.9300282 32.345999 29.5506234 32.7257934 29.1712185 33.2429234 28.9615988 33.7797007 28.9694694">
						</path>
						<path fill="#231F20"
							d="M32.514068 30.7934694C32.514068 30.0572517 32.8015238 29.1845442 33.7776327 29.1845442 34.7041088 29.1845442 35.1383946 30.1709932 35.1383946 30.9733878 35.1383946 31.7757823 34.9502041 32.7270748 33.8706939 32.7270748L33.8706939 32.6857143C34.9047075 32.6857143 35.0887619 31.7757823 35.0908299 30.9775238 35.092898 30.1792653 34.6648163 29.2383129 33.7776327 29.2362449 32.8408163 29.2362449 32.5637007 30.0634558 32.5595646 30.7976054 32.5595646 31.7695782 33.0062585 32.6836463 33.8706939 32.6857143L33.8706939 32.7312109C32.9628299 32.7312109 32.514068 31.7799184 32.514068 30.7976054M31.748898 30.9878639C31.7421679 30.4450325 31.9548365 29.9224663 32.3387058 29.538597 32.7225751 29.1547277 33.2451413 28.942059 33.7879728 28.9487891L33.7879728 28.9963537C33.2573996 28.9890573 32.7463908 29.196465 32.3709888 29.5714776 31.9955868 29.9464902 31.7876488 30.4572835 31.7943946 30.9878639 31.7943946 32.1500952 32.6691701 32.9256054 33.8169252 32.9256054 34.3680962 32.9428404 34.9015117 32.7295768 35.2888796 32.3371068 35.6762474 31.9446369 35.8825133 31.4084765 35.858068 30.8575782 35.858068 29.7077551 34.941932 28.9963537 33.7900408 28.9963537L33.7900408 28.9487891C34.9626122 28.9487891 35.9035646 29.6788027 35.9056327 30.8575782 35.9300103 31.4207212 35.7189972 31.9686199 35.3231775 32.3699317 34.9273578 32.7712434 34.3824186 32.9897859 33.8189932 32.9731701 32.6484898 32.9731701 31.750966 32.1769796 31.750966 30.9878639M39.5619048 31.7881905L39.5743129 31.7757823 39.5743129 29.7284354C39.5932563 29.5935439 39.5504806 29.4572901 39.4578391 29.3574297 39.3651975 29.2575693 39.23253 29.2047091 39.0965986 29.2134966L38.9787211 29.2134966 38.9787211 29.0501224C39.2351565 29.0501224 39.4874558 29.0728707 39.7418231 29.0728707 39.9961905 29.0728707 40.190585 29.0501224 40.416 29.0501224L40.416 29.2134966 40.337415 29.2134966C40.1078639 29.2134966 39.8514286 29.2569252 39.8514286 29.9083537L39.8514286 32.3899864C39.8473868 32.5746351 39.8584532 32.7593051 39.884517 32.9421497L39.6777143 32.9421497 36.8631293 29.8049524 36.8631293 32.0653061C36.8631293 32.5409524 36.9561905 32.7043265 37.376 32.7043265L37.4711293 32.7043265 37.4711293 32.8677007C37.2353741 32.8677007 37.0016871 32.8470204 36.765932 32.8470204 36.5301769 32.8470204 36.2696054 32.8677007 36.0235102 32.8677007L36.0235102 32.7043265 36.1000272 32.7043265C36.4764082 32.7043265 36.5901497 32.4478912 36.5901497 32.0115374L36.5901497 29.7056871C36.5907148 29.5742583 36.5384706 29.4481092 36.4451475 29.3555638 36.3518245 29.2630184 36.2252426 29.2118317 36.0938231 29.2134966L36.0235102 29.2134966 36.0235102 29.0501224C36.2303129 29.0501224 36.4371156 29.0728707 36.6439184 29.0728707 36.8093605 29.0728707 36.9665306 29.0501224 37.1299048 29.0501224L39.5619048 31.7881905z">
						</path>
						<path fill="#231F20"
							d="M39.6715102 32.9214694L39.8514286 32.9214694C39.8299616 32.7465353 39.820289 32.5703552 39.8224762 32.3941224L39.8224762 29.9124898C39.8224762 29.2548571 40.0975238 29.1948844 40.3332789 29.1948844L40.3911837 29.1948844 40.3911837 29.0790748C40.184381 29.0790748 39.961034 29.0997551 39.7418231 29.0997551 39.5226122 29.0997551 39.2496327 29.0790748 39.0014694 29.0790748L39.0014694 29.1948844 39.0965986 29.1948844C39.2381757 29.1868609 39.3759496 29.2424248 39.4723484 29.3464235 39.5687472 29.4504222 39.6137166 29.5920087 39.5949932 29.7325714L39.5949932 31.8005986 39.5949932 31.8109388 39.576381 31.827483 37.144381 29.0811429C36.9830748 29.0811429 36.8238367 29.1018231 36.6583946 29.1018231 36.4515918 29.1018231 36.2447891 29.0811429 36.0545306 29.0811429L36.0545306 29.1969524 36.1020952 29.1969524C36.2397373 29.1952939 36.3723134 29.2488132 36.4702292 29.3455633 36.5681449 29.4423134 36.6232481 29.5742391 36.6232381 29.7118912L36.6232381 32.0136054C36.6232381 32.4499592 36.5012245 32.7291429 36.1082993 32.7312109L36.0545306 32.7312109 36.0545306 32.8470204C36.2902857 32.8470204 36.5343129 32.8242721 36.7742041 32.8242721 37.0140952 32.8242721 37.2291701 32.8449524 37.454585 32.8470204L37.454585 32.7312109 37.3842721 32.7312109C36.9561905 32.7312109 36.8486531 32.5430204 36.8486531 32.0673741L36.8486531 29.7491156 39.6715102 32.9214694zM39.8783129 32.969034L39.6508299 32.969034 36.8796735 29.8794014 36.8796735 32.0653061C36.8796735 32.5409524 36.9582585 32.6857143 37.3677279 32.6857143L37.4856054 32.6857143 37.4856054 32.892517 37.4628571 32.892517C37.227102 32.892517 36.9913469 32.8718367 36.7576599 32.8718367 36.5239728 32.8718367 36.2613333 32.892517 36.0131701 32.892517L35.9945578 32.892517 35.9945578 32.6857143 36.0958912 32.6857143C36.4557279 32.6857143 36.5591293 32.4520272 36.5632653 32.0177415L36.5632653 29.7056871C36.5638416 29.5804753 36.5139296 29.4603155 36.4248088 29.3723621 36.3356879 29.2844088 36.2148804 29.2360856 36.0896871 29.2383129L35.9945578 29.2383129 35.9945578 29.0315102 36.0173061 29.0315102C36.2241088 29.0315102 36.4412517 29.0521905 36.6377143 29.0521905 36.8010884 29.0521905 36.9582585 29.0315102 37.1423129 29.0397823L39.5432925 31.7426939 39.5432925 29.7284354C39.5432925 29.2941497 39.2496327 29.242449 39.0903946 29.2383129L38.9477007 29.2383129 38.9477007 29.0315102 38.972517 29.0315102C39.2289524 29.0315102 39.4812517 29.0521905 39.735619 29.0521905 39.958966 29.0521905 40.1823129 29.0315102 40.4097959 29.0315102L40.4325442 29.0315102 40.4325442 29.2383129 40.337415 29.2383129C40.112 29.2383129 39.880381 29.2651973 39.8741769 29.9083537L39.8741769 32.3899864C39.8703856 32.5731885 39.8807566 32.7564096 39.9051973 32.9380136L39.9051973 32.964898 39.8783129 32.969034zM42.091102 29.6622585L42.091102 29.6622585 41.5782313 31.2091429 42.5998367 31.2091429 42.091102 29.6622585zM41.2928435 32.0839184C41.2396932 32.2176223 41.1995264 32.3561285 41.172898 32.4975238 41.172898 32.662966 41.402449 32.6898503 41.5865034 32.6898503L41.6485442 32.6898503 41.6485442 32.8532245C41.4293333 32.8408163 41.2039184 32.8325442 40.9867755 32.8325442 40.7696327 32.8325442 40.5938503 32.8325442 40.3973878 32.8532245L40.3973878 32.6898503 40.4284082 32.6898503C40.6482329 32.6896991 40.8417708 32.5449663 40.9040544 32.3341497L41.785034 29.8380408C41.8719763 29.6178235 41.9411319 29.3909932 41.9918367 29.1597279 42.1652529 29.0975694 42.332178 29.0186089 42.4902313 28.9239728 42.5041738 28.9185798 42.518783 28.9151015 42.5336599 28.9136327 42.5502041 28.9136327 42.5605442 28.9136327 42.5708844 28.9301769 42.5812245 28.9467211 42.6039728 29.0232381 42.620517 29.0666667L43.6255782 31.9246803C43.6917551 32.1149388 43.757932 32.3176054 43.832381 32.4809796 43.8888936 32.6280445 44.0377717 32.7182221 44.1942857 32.7001905L44.2273741 32.7001905 44.2273741 32.8635646C43.9812789 32.8511565 43.7351837 32.8428844 43.4725442 32.8428844 43.2099048 32.8428844 42.9307211 32.8428844 42.6453333 32.8635646L42.6453333 32.7001905 42.7073741 32.7001905C42.8314558 32.7001905 43.0465306 32.6774422 43.0465306 32.5409524 43.0250024 32.4060161 42.987515 32.2741162 42.9348571 32.1480272L42.7280544 31.5152109 41.4872381 31.5152109 41.2928435 32.0839184z">
						</path>
						<path fill="#231F20"
							d="M41.6051156 31.1843265L42.5605442 31.1843265 42.084898 29.7222313 41.6051156 31.1843265zM41.5389388 31.2318912L42.0642177 29.6374422 42.091102 29.6374422 42.091102 29.6622585 42.091102 29.6622585 42.091102 29.6374422 42.1076463 29.6374422 42.6246531 31.2318912 41.5389388 31.2318912zM42.6556735 32.8387483C42.924517 32.8284082 43.1912925 32.818068 43.4518639 32.818068 43.7124354 32.818068 43.9440544 32.8284082 44.1818776 32.8387483L44.1818776 32.7250068 44.1715374 32.7250068C44.0063053 32.7405386 43.8505738 32.645416 43.7889524 32.4913197 43.7186395 32.3258776 43.6524626 32.1232109 43.5821497 31.9329524L42.5750204 29.0749388 42.5295238 28.9446531C42.5295238 28.9446531 42.5295238 28.9446531 42.5295238 28.9446531L42.5191837 28.9446531C42.5089198 28.9428775 42.4984272 28.9428775 42.4881633 28.9446531 42.3333236 29.0412346 42.1664493 29.1170233 41.9918367 29.170068 41.9390627 29.402138 41.8699564 29.6301889 41.785034 29.852517L40.9081905 32.361034C40.8432582 32.5812119 40.6414158 32.7325938 40.4118639 32.7332789L40.4118639 32.7332789 40.4118639 32.8470204C40.6000544 32.8366803 40.7882449 32.8263401 40.9785034 32.8263401 41.1687619 32.8263401 41.404517 32.8366803 41.6154558 32.8470204L41.6154558 32.7332789 41.5782313 32.7332789C41.400381 32.7332789 41.1522177 32.7105306 41.1439456 32.5161361 41.1715358 32.3686873 41.2123726 32.2240284 41.2659592 32.0839184L41.2887075 32.0839184 41.2659592 32.0839184 41.4458776 31.5007347 42.7197823 31.5007347 42.9389932 32.1480272C42.9915776 32.2768489 43.0283803 32.4115605 43.0485986 32.5492245 43.0485986 32.7167347 42.8107755 32.7291429 42.6887619 32.7332789L42.6515374 32.7332789 42.6556735 32.8387483zM44.2046259 32.8863129C43.9585306 32.8863129 43.7124354 32.8656327 43.4518639 32.8656327 43.1912925 32.8656327 42.9121088 32.8780408 42.6246531 32.8863129L42.6122449 32.8863129 42.6122449 32.6795102 42.697034 32.6795102C42.8231837 32.6795102 43.0113741 32.6505578 43.0113741 32.5450884 42.9907719 32.4128566 42.9539596 32.2836661 42.9017687 32.1604354L42.694966 31.5400272 41.4893061 31.5400272 41.3197279 32.0921905C41.2671484 32.2259212 41.2276708 32.3644389 41.2018503 32.5057959 41.2018503 32.6402177 41.4086531 32.6733061 41.5865034 32.6733061L41.6692245 32.6733061 41.6692245 32.8801088 41.6464762 32.8801088C41.4272653 32.8801088 41.2039184 32.8594286 40.9867755 32.8594286 40.7696327 32.8594286 40.5938503 32.8718367 40.3973878 32.8801088L40.3725714 32.8801088 40.3725714 32.6733061 40.4284082 32.6733061C40.6379683 32.6734594 40.8224823 32.5352845 40.8813061 32.3341497L41.7560816 29.8277007C41.8263946 29.620898 41.9235918 29.3520544 41.9628844 29.1349116 42.1352144 29.0725735 42.3013723 28.9943408 42.4592109 28.9012245 42.4752746 28.8932051 42.4929579 28.8889611 42.5109116 28.8888163 42.5353772 28.885852 42.5591659 28.8981565 42.5708844 28.9198367L42.620517 29.0563265 43.6255782 31.9143401C43.6917551 32.1066667 43.7558639 32.3072653 43.832381 32.4706395 43.8831486 32.6094377 44.0227333 32.6950725 44.1694694 32.6774422L44.2253061 32.6774422 44.2253061 32.8842449 44.2046259 32.8863129zM45.581932 32.3279456C45.581932 32.5471565 45.734966 32.6133333 45.9086803 32.6360816 46.1491207 32.6544812 46.3907559 32.650327 46.6304218 32.6236735 46.838156 32.5997374 47.0274945 32.4931413 47.1557007 32.3279456 47.2345572 32.2077805 47.2919365 32.0748284 47.3252789 31.9350204L47.482449 31.9350204C47.4224762 32.2472925 47.3459592 32.5554286 47.2756463 32.8635646 46.7958639 32.8635646 46.3140136 32.8428844 45.8280272 32.8428844 45.3420408 32.8428844 44.8663946 32.8635646 44.3804082 32.8635646L44.3804082 32.7001905 44.4734694 32.7001905C44.6802721 32.7001905 44.8870748 32.6733061 44.8870748 32.3341497L44.8870748 29.5257687C44.8870748 29.242449 44.6802721 29.2134966 44.4734694 29.2134966L44.3990204 29.2134966 44.3990204 29.0501224C44.6864762 29.0501224 44.9718639 29.0728707 45.2613878 29.0728707 45.5509116 29.0728707 45.813551 29.0501224 46.0885986 29.0501224L46.0885986 29.2134966 45.9500408 29.2134966C45.7432381 29.2134966 45.5798639 29.2134966 45.5798639 29.5092245L45.581932 32.3279456z">
						</path>
						<path fill="#231F20"
							d="M47.2611701 32.8408163C47.3232109 32.5430204 47.3955918 32.2534966 47.4534966 31.9577687L47.3418231 31.9577687C47.3085354 32.0946698 47.2518668 32.2247978 47.1743129 32.3424218 47.0404272 32.5110788 46.8460506 32.6208793 46.6324898 32.6484898 46.4897959 32.660898 46.347102 32.6691701 46.2188844 32.6691701 46.0906667 32.6691701 46.0120816 32.6691701 45.9128163 32.6567619 45.734966 32.6381497 45.5633197 32.5616327 45.5633197 32.3279456L45.5633197 29.5092245C45.5633197 29.2052245 45.7556463 29.1907483 45.9583129 29.1907483L46.0720544 29.1907483 46.0720544 29.0749388C45.8032109 29.0749388 45.5364354 29.095619 45.2655238 29.095619 44.9946122 29.095619 44.7050884 29.0749388 44.4259048 29.0749388L44.4259048 29.1907483 44.4734694 29.1907483C44.6678639 29.1907483 44.9077551 29.2238367 44.9077551 29.5257687L44.9077551 32.3341497C44.9077551 32.6877823 44.669932 32.7250068 44.4734694 32.7250068L44.4217687 32.7250068 44.4217687 32.8408163C44.8932789 32.8408163 45.3668571 32.818068 45.8404354 32.818068 46.3140136 32.818068 46.7896599 32.8387483 47.2632381 32.8408163L47.2611701 32.8408163zM47.2818503 32.8863129C46.8 32.8863129 46.3202177 32.8656327 45.8342313 32.8656327 45.3482449 32.8656327 44.8725986 32.8863129 44.3866122 32.8863129L44.3638639 32.8863129 44.3638639 32.6795102 44.4734694 32.6795102C44.6802721 32.6795102 44.8581224 32.660898 44.8622585 32.3382857L44.8622585 29.5257687C44.8622585 29.2589932 44.672 29.242449 44.4734694 29.2383129L44.3742041 29.2383129 44.3742041 29.0315102 44.3969524 29.0315102C44.6885442 29.0315102 44.9718639 29.0521905 45.2613878 29.0521905 45.5509116 29.0521905 45.811483 29.0315102 46.0885986 29.0315102L46.1092789 29.0315102 46.1092789 29.2383129 45.9500408 29.2383129C45.7432381 29.2383129 45.6067483 29.2383129 45.6026122 29.5092245L45.6026122 32.3279456C45.6026122 32.5347483 45.737034 32.586449 45.9086803 32.6112653 46.0038095 32.6112653 46.115483 32.6216054 46.2106122 32.6216054 46.3487435 32.6217821 46.486793 32.6148796 46.6242177 32.6009252 46.8249695 32.5771401 47.008009 32.4744594 47.1329524 32.3155374 47.2099235 32.1971009 47.2658912 32.0662765 47.2983946 31.9288163L47.2983946 31.9122721 47.5051973 31.9122721 47.5051973 31.9412245C47.4431565 32.2534966 47.3666395 32.5616327 47.2983946 32.8697687L47.2983946 32.8863129 47.2818503 32.8863129zM47.3232109 29.472L47.3914558 29.472C47.4659048 29.472 47.5010612 29.4161633 47.5010612 29.3251701 47.5061839 29.2927979 47.496264 29.2598567 47.4741171 29.2356965 47.4519702 29.2115363 47.4200143 29.1987948 47.3873197 29.2010884L47.3232109 29.2010884 47.3232109 29.472zM47.1308844 29.776L47.1308844 29.7470476C47.2011973 29.7470476 47.2136054 29.7470476 47.2136054 29.6953469L47.2136054 29.2693333C47.2136054 29.2093605 47.2136054 29.1886803 47.1329524 29.1928163L47.1329524 29.170068 47.4266122 29.170068C47.5279456 29.170068 47.6210068 29.2176327 47.6210068 29.323102 47.6206021 29.4054108 47.5643932 29.4769494 47.484517 29.4968163L47.5796463 29.627102C47.6148888 29.6784482 47.6573794 29.7244217 47.7057959 29.7635918L47.7057959 29.7822041 47.5941224 29.7822041C47.5403537 29.7822041 47.4927891 29.6684626 47.3873197 29.5174966L47.3232109 29.5174966 47.3232109 29.7077551C47.3232109 29.7449796 47.3376871 29.7429116 47.408 29.7532517L47.408 29.7822041 47.1308844 29.776zM47.4162721 29.9393741C47.60738 29.9444257 47.7824617 29.833083 47.8589295 29.6578676 47.9353973 29.4826523 47.8979746 29.2785681 47.7643142 29.1418837 47.6306538 29.0051993 47.4274577 28.9632209 47.2505758 29.0357503 47.0736938 29.1082796 46.9584627 29.280827 46.9592381 29.472 46.9569381 29.7270451 47.1612393 29.9359686 47.4162721 29.9393741L47.4162721 29.9393741zM47.4162721 28.8950204C47.7335173 28.8950225 47.9908005 29.1520001 47.99118 29.4692451 47.9915586 29.7864901 47.7348902 30.0440818 47.4176458 30.0448436 47.1004015 30.045602 46.8425017 29.7892432 46.8413605 29.472 46.838542 29.3184889 46.8981392 29.1704053 47.0065112 29.0616435 47.1148832 28.9528817 47.2627518 28.8927531 47.4162721 28.8950204L47.4162721 28.8950204z">
						</path>
						<path fill="#FFF"
							d="M13.2917549,9.76163265 C13.2917549,4.65136451 17.4338422,0.508354389 22.5441102,0.507212959 C27.6543782,0.506072001 31.7983142,4.64723174 31.8005987,9.75749937 C31.8028813,14.867767 27.6626479,19.0126285 22.552381,19.0160581 C20.0967129,19.01825 17.7409011,18.0441366 16.0038992,16.3082983 C14.2668972,14.57246 13.2912052,12.2173016 13.2917549,9.76163265 L13.2917549,9.76163265 Z">
						</path>
						<path fill="#004A98"
							d="M22.552381,19.1816035 C17.2499592,19.2063129 12.8843537,14.9089524 12.8843537,9.68097959 C12.8905578,3.96495238 17.2561633,0.0108843537 22.552381,0.0108843537 L25.0340136,0.0108843537 C30.2743946,0.0108843537 35.0577415,3.96081633 35.0577415,9.67891156 C35.0577415,14.9068844 30.2743946,19.1794286 25.0340136,19.1794286 L22.552381,19.1816035 Z M22.5730612,0.805006803 C17.7269617,0.805006803 13.7984218,4.7335467 13.7984218,9.57964626 C13.7984218,14.4257458 17.7269617,18.3542857 22.5730612,18.3542857 C27.4191608,18.3542857 31.3477007,14.4257458 31.3477007,9.57964626 C31.3477007,4.73596851 27.4229418,0.80843151 22.5792653,0.805006803 L22.5730612,0.805006803 Z M20.5877551,14.7683265 L20.5877551,4.39096599 C18.4386594,5.21472404 17.0198105,7.27808379 17.0198105,9.57964626 C17.0198105,11.8812087 18.4386594,13.9445685 20.5877551,14.7683265 L20.5877551,14.7683265 Z M28.1360544,9.57964626 C28.1339953,7.27717054 26.7142398,5.21371587 24.5645714,4.38889796 L24.5645714,14.7703946 C26.7146207,13.9460602 28.134583,11.8823049 28.1360544,9.57964626 Z">
						</path>
					</g>
				</svg>