	<svg role="img" xmlns="http://www.w3.org/2000/svg" width="60" height="40" viewBox="0 0 60 40">
					<title>Klarna</title>
					<rect x=".5" y=".5" width="59" height="39" rx="4" fill="#FFF" stroke="#DDD" transform="translate(0 .5)">
					</rect>
					<g transform="translate(5 10)">
						<rect width="50" height="20" rx="4" fill="#ffb3c7"></rect>
						<path style=" stroke:none;fill-rule:nonzero;fill:rgb(0%,0%,0%);fill-opacity:1;"
							d="M 39.871094 8.761719 C 38.59375 7.894531 36.871094 8.109375 35.851562 9.269531 C 34.828125 10.425781 34.828125 12.164062 35.851562 13.320312 C 36.871094 14.476562 38.59375 14.695312 39.871094 13.824219 L 39.871094 14.195312 L 41.609375 14.195312 L 41.609375 8.390625 L 39.871094 8.390625 Z M 38.292969 12.789062 C 37.476562 12.746094 36.847656 12.054688 36.875 11.242188 C 36.90625 10.425781 37.582031 9.785156 38.398438 9.800781 C 39.210938 9.8125 39.867188 10.480469 39.867188 11.292969 C 39.84375 12.140625 39.136719 12.808594 38.292969 12.789062 Z M 14.222656 5.804688 L 16.039062 5.804688 L 16.039062 14.195312 L 14.222656 14.195312 Z M 32 8.234375 C 31.304688 8.195312 30.636719 8.496094 30.207031 9.046875 L 30.207031 8.390625 L 28.476562 8.390625 L 28.476562 14.195312 L 30.230469 14.195312 L 30.230469 11.144531 C 30.203125 10.792969 30.332031 10.441406 30.582031 10.191406 C 30.832031 9.9375 31.179688 9.808594 31.535156 9.832031 C 32.296875 9.832031 32.738281 10.289062 32.738281 11.132812 L 32.738281 14.195312 L 34.472656 14.195312 L 34.472656 10.503906 C 34.472656 9.15625 33.398438 8.234375 32 8.234375 Z M 21.539062 8.761719 C 20.261719 7.894531 18.539062 8.109375 17.519531 9.269531 C 16.496094 10.425781 16.496094 12.164062 17.519531 13.320312 C 18.539062 14.476562 20.261719 14.695312 21.539062 13.824219 L 21.539062 14.195312 L 23.277344 14.195312 L 23.277344 8.390625 L 21.539062 8.390625 Z M 19.957031 12.789062 C 19.144531 12.746094 18.515625 12.054688 18.542969 11.242188 C 18.570312 10.425781 19.25 9.785156 20.0625 9.800781 C 20.878906 9.8125 21.53125 10.480469 21.53125 11.292969 C 21.511719 12.140625 20.804688 12.808594 19.957031 12.789062 Z M 25.964844 9.148438 L 25.964844 8.390625 L 24.1875 8.390625 L 24.1875 14.195312 L 25.96875 14.195312 L 25.96875 11.488281 C 25.96875 10.570312 26.960938 10.082031 27.648438 10.082031 C 27.652344 10.082031 27.660156 10.082031 27.667969 10.082031 L 27.667969 8.390625 C 27.015625 8.375 26.390625 8.652344 25.964844 9.148438 Z M 43.453125 12.136719 C 42.851562 12.136719 42.363281 12.625 42.363281 13.226562 C 42.363281 13.832031 42.851562 14.320312 43.453125 14.320312 C 44.054688 14.320312 44.542969 13.832031 44.542969 13.226562 C 44.546875 12.625 44.054688 12.136719 43.453125 12.136719 Z M 12.96875 5.804688 L 11.085938 5.804688 C 11.089844 7.335938 10.367188 8.78125 9.136719 9.695312 L 8.390625 10.253906 L 11.28125 14.199219 L 13.660156 14.199219 L 11 10.570312 C 12.265625 9.308594 12.976562 7.59375 12.96875 5.804688 Z M 6.269531 5.804688 L 8.160156 5.804688 L 8.160156 14.199219 L 6.269531 14.199219 Z M 6.269531 5.804688 ">
						</path>
					</g>
				</svg>