<svg version="1.1" xmlns="http://www.w3.org/2000/svg" xmlns:xlink="http://www.w3.org/1999/xlink" width="60" height="40" viewBox="0 0 60 40" xml:space="preserve">
	<title>Maestro</title>
	<path fill="#DDDDDD" d="M55.613,0H4.254C2.239,0,0.588,1.8,0.588,4v32c0,2.2,1.651,4,3.668,4h51.359c2.018,0,3.669-1.8,3.669-4V4 C59.284,1.8,57.633,0,55.613,0z M58.549,36c0,1.766-1.316,3.2-2.936,3.2H4.254c-1.618,0-2.934-1.435-2.934-3.2V4 c0-1.763,1.316-3.2,2.935-3.2h51.358c1.619,0,2.936,1.436,2.936,3.2V36z"></path>
	<path fill="#FFFFFF" d="M55.613,0.8H4.255C2.636,0.8,1.32,2.237,1.32,4v32c0,1.766,1.316,3.2,2.934,3.2h51.359 c1.619,0,2.936-1.435,2.936-3.2V4C58.549,2.236,57.232,0.8,55.613,0.8z"></path>
	<path d="M23.377,33.441v-1.735c0.021-0.295-0.087-0.585-0.296-0.794c-0.209-0.21-0.498-0.32-0.793-0.303 c-0.391-0.025-0.764,0.162-0.976,0.492c-0.193-0.319-0.544-0.508-0.917-0.492c-0.324-0.016-0.633,0.14-0.813,0.41v-0.34h-0.604 v2.762h0.61v-1.53c-0.051-0.352,0.191-0.679,0.543-0.729c0.045-0.007,0.091-0.009,0.136-0.006c0.4,0,0.604,0.26,0.604,0.73v1.535 h0.61v-1.53c-0.047-0.356,0.203-0.683,0.558-0.73c0.041-0.005,0.082-0.007,0.122-0.005c0.411,0,0.609,0.26,0.609,0.73v1.535H23.377z M26.774,32.061v-1.379h-0.61v0.336c-0.208-0.268-0.532-0.418-0.87-0.406c-0.803,0-1.453,0.648-1.453,1.447s0.65,1.446,1.452,1.446 c0.34,0.013,0.663-0.138,0.871-0.405v0.336h0.604l0.006-1.373V32.061z M24.529,32.061c0.028-0.455,0.415-0.804,0.87-0.785 c0.456,0.016,0.814,0.394,0.807,0.85c-0.009,0.455-0.379,0.82-0.834,0.822c-0.459,0.01-0.84-0.355-0.85-0.814 c0-0.023,0-0.047,0.001-0.07h0.005V32.061z M39.678,30.615c0.198,0,0.396,0.037,0.58,0.109c0.178,0.07,0.338,0.176,0.475,0.308 c0.134,0.131,0.24,0.287,0.313,0.46c0.152,0.369,0.152,0.785,0,1.156c-0.072,0.172-0.179,0.33-0.313,0.461 c-0.137,0.132-0.298,0.235-0.475,0.306c-0.383,0.147-0.807,0.147-1.189,0c-0.354-0.14-0.635-0.417-0.781-0.767 c-0.151-0.371-0.151-0.786,0-1.156c0.146-0.351,0.428-0.627,0.779-0.768c0.192-0.078,0.398-0.119,0.605-0.117L39.678,30.615z M39.678,31.193c-0.118-0.001-0.236,0.02-0.346,0.063c-0.104,0.042-0.197,0.104-0.275,0.183c-0.08,0.084-0.143,0.182-0.184,0.289 c-0.089,0.231-0.089,0.486,0,0.717c0.08,0.215,0.246,0.387,0.459,0.472c0.334,0.13,0.713,0.06,0.979-0.181 c0.08-0.084,0.143-0.182,0.183-0.291c0.089-0.23,0.089-0.485,0-0.717c-0.04-0.107-0.103-0.207-0.183-0.289 c-0.082-0.08-0.182-0.143-0.289-0.183c-0.111-0.05-0.229-0.077-0.351-0.08L39.678,31.193z M30.055,32.063 c0-0.869-0.54-1.447-1.315-1.447c-0.8,0.01-1.441,0.666-1.432,1.465c0,0.001,0,0.002,0,0.002c0.013,0.8,0.672,1.438,1.472,1.426 c0.414,0.014,0.818-0.124,1.136-0.388l-0.29-0.445c-0.23,0.183-0.514,0.285-0.808,0.289c-0.414,0.036-0.782-0.265-0.83-0.677h2.058 C30.055,32.215,30.055,32.143,30.055,32.063z M27.991,31.818c0.023-0.382,0.345-0.678,0.728-0.668 c0.379-0.008,0.693,0.292,0.703,0.67L27.991,31.818z M32.596,31.385c-0.266-0.152-0.564-0.233-0.871-0.236 c-0.33,0-0.529,0.121-0.529,0.322c0,0.203,0.211,0.238,0.471,0.272l0.29,0.04c0.604,0.088,0.97,0.342,0.97,0.828 s-0.464,0.902-1.262,0.902c-0.428,0.012-0.849-0.113-1.2-0.359l0.29-0.469c0.268,0.197,0.592,0.301,0.924,0.291 c0.412,0,0.633-0.123,0.633-0.336c0-0.156-0.156-0.244-0.487-0.291l-0.29-0.039c-0.621-0.086-0.958-0.365-0.958-0.815 c0-0.55,0.452-0.886,1.161-0.886c0.396-0.013,0.788,0.088,1.13,0.289L32.596,31.385z M35.499,31.229h-0.983v1.246 c0,0.291,0.098,0.463,0.399,0.463c0.19-0.006,0.373-0.06,0.535-0.155l0.174,0.515c-0.226,0.141-0.487,0.215-0.755,0.214 c-0.715,0-0.965-0.382-0.965-1.024v-1.258h-0.563V30.68h0.563v-0.84h0.611v0.84h0.983V31.229z M37.587,30.609 c0.146,0,0.292,0.026,0.431,0.076l-0.187,0.578c-0.12-0.049-0.249-0.072-0.378-0.07c-0.395,0-0.58,0.255-0.58,0.711v1.549H36.27 v-2.764h0.598v0.336c0.151-0.258,0.432-0.414,0.732-0.404L37.587,30.609L37.587,30.609z M41.762,33.039 c0.074,0,0.146,0.027,0.2,0.078c0.107,0.102,0.112,0.271,0.01,0.379c-0.028,0.029-0.062,0.052-0.1,0.066 c-0.034,0.016-0.072,0.023-0.11,0.023c-0.111-0.001-0.213-0.066-0.261-0.168c-0.06-0.137,0.003-0.297,0.141-0.356 c0.034-0.015,0.069-0.022,0.106-0.022H41.762z M41.762,33.529c0.058,0,0.112-0.023,0.151-0.065c0.082-0.085,0.081-0.22-0.005-0.303 c-0.061-0.06-0.151-0.077-0.23-0.044c-0.025,0.011-0.05,0.026-0.07,0.047c-0.074,0.082-0.074,0.207,0,0.289 c0.041,0.04,0.098,0.064,0.154,0.064v0.01V33.529z M41.779,33.184c0.027-0.001,0.055,0.008,0.076,0.023 c0.018,0.015,0.027,0.037,0.025,0.061c0.002,0.02-0.006,0.039-0.02,0.053c-0.018,0.015-0.038,0.023-0.061,0.025l0.083,0.096h-0.065 l-0.08-0.096h-0.025v0.096h-0.055v-0.267L41.779,33.184z M41.716,33.234v0.067h0.063c0.012,0.004,0.024,0.004,0.035,0 c0.005-0.008,0.005-0.018,0-0.026c0.005-0.008,0.005-0.018,0-0.025c-0.011-0.004-0.023-0.004-0.035,0l-0.063-0.018V33.234z"></path>
	<path fill="#7673C0" d="M25.482,9.604h9.146v16.375h-9.146V9.604z"></path>
	<path fill="#EB001B" d="M26.063,17.793c-0.002-3.199,1.47-6.221,3.992-8.19c-4.286-3.355-10.44-2.866-14.138,1.123 c-3.699,3.984-3.699,10.146,0,14.129c3.698,3.99,9.852,4.479,14.138,1.123C27.535,24.011,26.062,20.99,26.063,17.793z"></path>
	<path fill="#00A1DF" d="M45.971,24.253v-0.332h0.135V23.85h-0.344v0.071h0.135v0.345L45.971,24.253z M46.641,24.253v-0.415h-0.104 l-0.122,0.296l-0.122-0.296h-0.106v0.415h0.074v-0.312l0.113,0.271h0.079l0.112-0.271v0.314L46.641,24.253z M46.966,17.793 c-0.005,3.991-2.29,7.629-5.885,9.363c-3.599,1.742-7.876,1.285-11.026-1.178c2.519-1.969,3.993-4.989,3.994-8.188 c0-3.195-1.472-6.213-3.994-8.187c3.15-2.464,7.427-2.922,11.028-1.18c3.595,1.735,5.882,5.374,5.885,9.366L46.966,17.793z"></path>
</svg>