<svg version="1.1" xmlns="http://www.w3.org/2000/svg" xmlns:xlink="http://www.w3.org/1999/xlink" width="60" height="40" viewBox="0 0 60 40" xml:space="preserve">
	<title>Paypal</title>
	<path fill="#DDDDDD" d="M56.25,0.8c1.654,0,3,1.436,3,3.2v32c0,1.766-1.346,3.2-3,3.2H3.75c-1.655,0-3-1.435-3-3.2V4 c0-1.764,1.345-3.2,3-3.2H56.25"></path>
	<path fill="#FFFFFF" d="M56.25,0H3.75C1.687,0,0,1.8,0,4v32c0,2.2,1.688,4,3.75,4h52.5c2.063,0,3.75-1.8,3.75-4V4 C60,1.8,58.313,0,56.25,0"></path>
	<path fill="#0093C7" d="M39.764,16.439c-0.225,1.551-1.352,1.551-2.441,1.551h-0.62l0.435-2.897c0.021-0.171,0.166-0.3,0.338-0.304 h0.285c0.742,0,1.443,0,1.805,0.445C39.779,15.5,39.846,15.894,39.764,16.439z M39.29,12.391h-4.112 c-0.287,0.005-0.527,0.221-0.564,0.507L32.95,23.98c-0.033,0.219,0.128,0.416,0.339,0.416h2.109c0.197,0,0.365-0.15,0.395-0.354 l0.473-3.142c0.035-0.286,0.275-0.502,0.563-0.507h1.3c2.71,0,4.271-1.378,4.68-4.108c0.186-1.194,0.008-2.133-0.523-2.79 C41.7,12.773,40.665,12.391,39.29,12.391L39.29,12.391z"></path>
	<path fill="#213170" d="M10.439,16.439c-0.225,1.551-1.352,1.551-2.442,1.551h-0.62l0.434-2.897c0.022-0.171,0.167-0.3,0.339-0.304 h0.284c0.742,0,1.443,0,1.805,0.445C10.455,15.5,10.521,15.894,10.439,16.439z M9.964,12.391H5.853 c-0.288,0.005-0.529,0.221-0.565,0.507L3.626,23.98c-0.033,0.219,0.128,0.416,0.338,0.416h1.963 c0.288-0.006,0.528-0.221,0.565-0.506L6.94,20.9c0.036-0.286,0.277-0.502,0.565-0.507h1.3c2.709,0,4.272-1.378,4.68-4.108 c0.184-1.194,0.008-2.133-0.524-2.79C12.376,12.773,11.34,12.391,9.964,12.391z M19.51,20.417c-0.19,1.183-1.084,1.976-2.223,1.976 c-0.57,0-1.028-0.192-1.322-0.558c-0.29-0.362-0.4-0.879-0.308-1.454c0.177-1.172,1.084-1.991,2.206-1.991 c0.56,0,1.013,0.195,1.313,0.564C19.477,19.325,19.596,19.845,19.51,20.417z M22.253,16.389h-1.968 c-0.173,0.003-0.317,0.132-0.339,0.304l-0.087,0.579l-0.137-0.21c-0.427-0.65-1.377-0.868-2.326-0.868 c-2.175,0-4.033,1.733-4.394,4.163c-0.189,1.211,0.078,2.37,0.732,3.18c0.601,0.742,1.459,1.052,2.48,1.052 c1.753,0,2.726-1.185,2.726-1.185l-0.088,0.576c-0.033,0.219,0.128,0.416,0.338,0.416h1.773c0.288-0.006,0.527-0.221,0.564-0.506 l1.065-7.085C22.625,16.587,22.464,16.389,22.253,16.389z"></path>
	<path fill="#0093C7" d="M48.835,20.417c-0.19,1.183-1.083,1.976-2.222,1.976c-0.571,0-1.028-0.192-1.322-0.558 c-0.292-0.362-0.4-0.879-0.309-1.454c0.177-1.172,1.084-1.991,2.207-1.991c0.559,0,1.013,0.195,1.312,0.564 C48.803,19.325,48.921,19.845,48.835,20.417L48.835,20.417z M51.579,16.389h-1.97c-0.173,0.003-0.316,0.133-0.338,0.304 l-0.086,0.579l-0.139-0.21c-0.426-0.65-1.377-0.868-2.324-0.868c-2.176,0-4.035,1.733-4.396,4.163 c-0.188,1.211,0.079,2.37,0.733,3.18c0.6,0.742,1.457,1.052,2.479,1.052c1.753,0,2.726-1.185,2.726-1.185l-0.089,0.576 c-0.032,0.219,0.128,0.416,0.339,0.416h1.773c0.287-0.006,0.527-0.221,0.564-0.506l1.063-7.085 C51.95,16.587,51.789,16.389,51.579,16.389z"></path>
	<path fill="#213170" d="M32.74,16.389h-1.98c-0.191,0.001-0.37,0.101-0.472,0.263l-2.73,4.226l-1.157-4.06 c-0.065-0.249-0.289-0.424-0.547-0.429h-1.945c-0.235,0-0.4,0.243-0.325,0.476l2.18,6.724l-2.05,3.04 c-0.161,0.238,0.001,0.568,0.28,0.568h1.976c0.19-0.002,0.367-0.099,0.47-0.258l6.582-9.984c0.156-0.24-0.006-0.566-0.283-0.566"></path>
	<path fill="#0093C7" d="M53.9,12.695L52.211,23.98c-0.033,0.219,0.128,0.416,0.338,0.416h1.697c0.287-0.006,0.528-0.221,0.564-0.506 l1.664-11.083c0.032-0.22-0.127-0.417-0.339-0.417h-1.899c-0.173,0.004-0.316,0.133-0.338,0.304"></path>
</svg>