		<svg role="img" width="60" height="40" xmlns="http://www.w3.org/2000/svg">
						<title>Sezzle</title>
						<defs>
							<linearGradient x1="78.228%" y1="85.614%" x2="46.08%" y2="37.679%" id="linearGradient-a">
								<stop stop-color="#CE5DCB" offset="0%"></stop>
								<stop stop-color="#C558CC" offset="21%"></stop>
								<stop stop-color="#AC4ACF" offset="55%"></stop>
								<stop stop-color="#8534D4" offset="98%"></stop>
								<stop stop-color="#8333D4" offset="100%"></stop>
							</linearGradient>
							<linearGradient x1="-.003%" y1="50.001%" x2="100%" y2="50.001%" id="linearGradient-b">
								<stop stop-color="#FF5667" offset="2%"></stop>
								<stop stop-color="#FC8B82" offset="66%"></stop>
								<stop stop-color="#FBA28E" offset="100%"></stop>
							</linearGradient>
							<linearGradient x1="-.001%" y1="50%" x2="100.001%" y2="50%" id="linearGradient-c">
								<stop stop-color="#00B874" offset="0%"></stop>
								<stop stop-color="#29D3A2" offset="51%"></stop>
								<stop stop-color="#53DFB6" offset="68%"></stop>
								<stop stop-color="#9FF4D9" offset="100%"></stop>
							</linearGradient>
							<linearGradient x1="-.001%" y1="50%" x2="100.001%" y2="50%" id="linearGradient-d">
								<stop stop-color="#FCD77E" offset="0%"></stop>
								<stop stop-color="#FEA500" offset="52%"></stop>
								<stop stop-color="#FF5B00" offset="100%"></stop>
							</linearGradient>
						</defs>
						<g fill="none" fill-rule="evenodd">
							<rect x=".5" y=".5" width="59" height="39" rx="4" fill="#FFF" stroke="#DDD"></rect>
							<g fill-rule="nonzero">
								<path
									d="M.848 8.742a2.84 2.84 0 002.047.882 2.84 2.84 0 002.048-.882l.108-.112c.564-.587-.564-3.67 0-4.258L.848 8.742z"
									fill="url(#linearGradient-a)" transform="translate(5 13)"></path>
								<path d="M5.16 4.258l-.108.113c-.564.586.563 3.67 0 4.258l4.202-4.37a2.818 2.818 0 00-4.094 0"
									fill="url(#linearGradient-b)" transform="translate(5 13)"></path>
								<path
									d="M.848 4.484A3.072 3.072 0 000 6.614c0 .798.305 1.564.848 2.128l4.313-4.484c.543-.565.848-1.33.848-2.13C6.009 1.33 5.704.566 5.16 0L.848 4.484z"
									fill="url(#linearGradient-c)" transform="translate(5 13)"></path>
								<path
									d="M4.943 8.742a3.072 3.072 0 00-.849 2.13c0 .798.306 1.563.849 2.128l4.312-4.484c.543-.565.848-1.33.848-2.13 0-.798-.305-1.564-.848-2.128L4.943 8.742z"
									fill="url(#linearGradient-d)" transform="translate(5 13)"></path>
								<path
									d="M31.031 19.523a3.334 3.334 0 00-1.553-2.005 3.146 3.146 0 00-2.461-.275c-1.713.521-2.696 2.387-2.196 4.169v.008c.055.192.143.437.145.44.275.67.736 1.182 1.408 1.564 1.37.776 3.075.427 4.06-.829l.026-.034c.108-.14.203-.29.287-.447a.585.585 0 00-.22-.764.54.54 0 00-.742.204 2.168 2.168 0 01-.535.651.37.37 0 00-.047.045 2.076 2.076 0 01-2.302.166 2.144 2.144 0 01-.796-.798l4.554-1.387a.575.575 0 00.372-.708zm-3.1-1.277a2.126 2.126 0 011.792 1.016l.032.054-3.963 1.21c-.024-1.007.605-1.904 1.534-2.189.196-.06.4-.09.605-.091zM36.874 22.746h-3.012L37.23 17.6a.327.327 0 00.018-.326.303.303 0 00-.268-.17h-4.284a.526.526 0 00-.515.537c0 .296.23.536.515.536h2.87l-3.367 5.146a.327.327 0 00-.018.326.302.302 0 00.268.169h4.423a.527.527 0 00.498-.536.527.527 0 00-.498-.536h.002zM43.547 22.746h-3.011l3.367-5.146a.327.327 0 00.02-.328.302.302 0 00-.272-.168H39.37a.526.526 0 00-.516.536c0 .296.231.536.516.536h2.87l-3.368 5.147a.327.327 0 00-.018.325.302.302 0 00.269.169h4.423c.284 0 .515-.24.515-.536a.526.526 0 00-.515-.536v.001zM46.52 14.203a.527.527 0 00-.515.536v8.562c0 .296.23.536.516.536.284 0 .515-.24.515-.536V14.74a.527.527 0 00-.515-.536zM54.978 19.524c-.24-.857-.8-1.58-1.554-2.006a3.146 3.146 0 00-2.461-.275c-1.713.523-2.695 2.388-2.197 4.17v.009c.056.19.144.436.146.44.275.67.736 1.18 1.408 1.564 1.368.775 3.074.427 4.06-.83l.026-.035c.106-.14.202-.288.285-.443a.585.585 0 00-.232-.73.538.538 0 00-.722.167 2.167 2.167 0 01-.535.652.382.382 0 00-.047.044 2.078 2.078 0 01-2.303.167 2.14 2.14 0 01-.796-.799l4.55-1.388a.575.575 0 00.372-.707zm-3.1-1.278a2.126 2.126 0 011.792 1.016l.033.054-3.964 1.21c-.014-.6.206-1.18.608-1.609.403-.43.955-.671 1.532-.672v.001zM23.093 20.837a1.75 1.75 0 00-.655-.576c-.462-.244-1.06-.356-1.634-.45l-.091-.014c-.403-.065-.82-.13-1.087-.274-.202-.106-.274-.226-.274-.46 0-.453.474-.794 1.102-.794.752 0 1.17.228 1.64.525.26.167.603.08.762-.191a.59.59 0 00-.184-.794 4.707 4.707 0 00-.903-.472 3.702 3.702 0 00-1.316-.224c-.579 0-1.12.183-1.525.515-.432.34-.687.87-.689 1.434 0 .67.306 1.186.884 1.49.425.224.93.306 1.418.384l.09.015c1.253.204 1.614.39 1.614.818 0 .533-.514.883-1.309.89h-.024a2.522 2.522 0 01-1.59-.521c-.042-.03-.078-.057-.114-.08a.544.544 0 00-.733.203.593.593 0 00.144.774l.063.042.015.01c.644.483 1.42.738 2.215.727h.038c.689-.007 1.283-.2 1.715-.56.438-.357.692-.904.69-1.483a1.676 1.676 0 00-.262-.934z"
									fill="#382757"></path>
							</g>
						</g>
					</svg>