<svg xmlns="http://www.w3.org/2000/svg" width="80" height="16" viewBox="0 0 84 16">

	<linearGradient id="grad-11289609-95.19999999999999" x1="0" x2="100%" y1="0" y2="0">
		<stop class="productBlock_ratingStars-fill" offset="95.19999999999999%"></stop>
		<stop class="productBlock_ratingStars-background" offset="4.800000000000011%"></stop>
	</linearGradient>

	<path fill="url(#grad-11289609-95.19999999999999)" d="M8 12.5 3.004 16 4.403 10 0 6 5.777 5.44 8 0 10.223 5.44 16 6 11.597 10 12.996 16 M25 12.5 20.004 16 21.403 10 17 6 22.777 5.44 25 0 27.223 5.44 33 6 28.597 10 29.996 16 M42 12.5 37.004 16 38.403 10 34 6 39.777 5.44 42 0 44.223 5.44 50 6 45.597 10 46.996 16 M59 12.5 54.004 16 55.403 10 51 6 56.777 5.44 59 0 61.223 5.44 67 6 62.597 10 63.996 16 M76 12.5 71.004 16 72.403 10 68 6 73.777 5.44 76 0 78.223 5.44 84 6 79.597 10 80.996 16"></path>

</svg>