<svg role="img" xmlns="http://www.w3.org/2000/svg" width="60" height="40" viewBox="0 0 60 40">
	<title>Visa</title>
	<path fill="#DDDDDD" d="M56.25,0H3.75C1.685,0,0,1.8,0,4v32c0,2.199,1.686,4,3.75,4h52.5c2.064,0,3.75-1.801,3.75-4V4 C60,1.8,58.314,0,56.25,0z M59.25,36c0,1.764-1.346,3.2-3,3.2H3.75c-1.655,0-3-1.437-3-3.2V4c0-1.764,1.345-3.2,3-3.2h52.5 c1.654,0,3,1.436,3,3.2V36z"></path>
	<path fill="#FFFFFF" d="M56.25,0.8H3.75c-1.655,0-3,1.436-3,3.2v32c0,1.764,1.345,3.2,3,3.2h52.5c1.654,0,3-1.437,3-3.2V4 C59.25,2.236,57.904,0.8,56.25,0.8z"></path>
	<path fill="#FFFFFF" d="M5,35.816h50V4H5V35.816z"></path>
	<path fill="#F8B600" d="M5.833,34.988h48.333v-4.342H5.833V34.988z"></path>
	<path fill="#1A1F71" d="M5.833,9.175h48.333v-4.34H5.833V9.175z M29.583,13.958l-2.548,11.931h-3.081L26.5,13.958H29.583 L29.583,13.958z M42.547,21.662l1.622-4.48l0.933,4.48H42.547z M45.986,25.889h2.849l-2.489-11.931h-2.628 c-0.593,0-1.092,0.344-1.313,0.875l-4.623,11.056h3.236l0.643-1.781h3.953L45.986,25.889L45.986,25.889z M37.941,21.994 c0.014-3.149-4.344-3.323-4.315-4.73c0.009-0.428,0.416-0.883,1.306-1c0.441-0.057,1.659-0.103,3.041,0.534l0.539-2.53 c-0.922-0.346-1.898-0.524-2.883-0.528c-3.047,0-5.19,1.62-5.207,3.944c-0.02,1.718,1.531,2.675,2.697,3.248 c1.201,0.584,1.604,0.959,1.598,1.482c-0.008,0.8-0.958,1.154-1.842,1.168c-1.55,0.023-2.449-0.42-3.165-0.754l-0.56,2.615 c0.722,0.33,2.05,0.619,3.426,0.634C35.814,26.077,37.932,24.475,37.941,21.994z M25.18,13.958l-4.993,11.931H16.93l-2.457-9.521 c-0.15-0.585-0.279-0.8-0.732-1.048c-0.74-0.403-1.964-0.78-3.04-1.015l0.073-0.346h5.243c0.668,0,1.27,0.445,1.422,1.216 l1.298,6.905l3.205-8.121H25.18z"></path>
</svg>